<?xml version="1.0" encoding="UTF-8" standalone="no"?>
<!DOCTYPE svg PUBLIC "-//W3C//DTD SVG 1.1//EN" "http://www.w3.org/Graphics/SVG/1.1/DTD/svg11.dtd">
<svg xmlns="http://www.w3.org/2000/svg" version="1.1" viewBox="0.00 0.00 240.00 240.00">
<g stroke-width="2.00" fill="none" stroke-linecap="butt">
<path stroke="#435e9a" vector-effect="non-scaling-stroke" d="
  M 39.81 43.33
  Q 38.61 43.77 37.46 43.77
  Q 35.98 43.77 35.98 45.25
  L 35.98 55.00
  A 1.02 1.02 0.0 0 0 37.00 56.02
  L 42.45 56.02
  A 1.47 1.47 0.0 0 1 43.92 57.54
  Q 43.88 58.48 44.23 59.29
  Q 44.45 59.81 45.00 59.91
  L 47.74 60.44"
/>
<path stroke="#41778c" vector-effect="non-scaling-stroke" d="
  M 47.74 60.44
  L 48.11 63.20
  A 0.96 0.95 -6.8 0 0 49.16 64.02
  Q 50.27 63.90 51.30 64.23
  Q 51.89 64.41 51.92 65.02
  L 52.05 67.04
  A 1.01 1.00 88.5 0 0 53.04 67.99
  L 59.00 68.05
  A 1.04 1.04 0.0 0 1 60.01 69.26
  Q 59.81 70.54 60.37 71.59
  Q 60.62 72.07 61.16 72.01
  Q 62.24 71.89 63.29 72.16
  Q 63.89 72.32 63.93 72.94
  L 64.08 75.13
  A 0.75 0.74 1.4 0 0 64.74 75.82
  L 67.78 76.18"
/>
<path stroke="#435e9a" vector-effect="non-scaling-stroke" d="
  M 67.78 76.18
  L 68.07 79.17
  A 0.93 0.93 0.0 0 0 69.01 80.01
  Q 72.39 79.96 75.16 80.14
  Q 76.28 80.21 76.14 83.47
  A 0.38 0.38 0.0 0 0 76.49 83.87
  L 79.34 84.12
  A 0.62 0.62 0.0 0 1 79.90 84.70
  L 80.05 87.03
  A 0.96 0.96 0.0 0 0 80.91 87.93
  L 83.83 88.21"
/>
<path stroke="#41778c" vector-effect="non-scaling-stroke" d="
  M 83.83 88.21
  L 84.23 91.38
  Q 84.31 92.00 84.94 92.01
  L 90.94 92.02
  A 1.13 1.13 0.0 0 1 92.05 93.37
  Q 91.84 94.40 92.20 95.31
  Q 92.43 95.91 93.08 95.95
  L 95.28 96.10
  A 0.72 0.71 0.4 0 1 95.95 96.78
  L 96.03 98.86
  A 1.16 1.16 0.0 0 0 97.11 99.97
  L 99.20 100.12
  Q 99.61 100.14 99.76 100.52
  Q 100.14 101.48 100.00 102.70
  A 1.20 1.20 0.0 0 0 101.14 104.03
  L 107.93 104.36"
/>
<path stroke="#435e9a" vector-effect="non-scaling-stroke" d="
  M 107.93 104.36
  Q 107.82 106.03 108.26 107.31
  Q 108.45 107.86 109.02 107.93
  L 111.00 108.16
  A 1.03 1.03 0.0 0 1 111.90 109.17
  L 112.03 131.77"
/>
<path stroke="#41778c" vector-effect="non-scaling-stroke" d="
  M 112.03 131.77
  L 111.99 172.36"
/>
<path stroke="#435e9a" vector-effect="non-scaling-stroke" d="
  M 111.99 172.36
  L 111.91 207.19
  Q 111.91 207.58 111.58 207.77
  Q 111.45 207.84 111.31 207.87"
/>
<path stroke="#41778c" vector-effect="non-scaling-stroke" d="
  M 111.31 207.87
  Q 109.79 207.69 108.57 208.15
  Q 108.01 208.37 108.00 208.98
  L 107.98 211.11
  Q 107.97 211.69 107.39 211.72
  L 100.73 212.08
  Q 100.38 212.10 100.20 212.40
  Q 99.69 213.26 100.07 214.57
  A 0.87 0.86 -5.5 0 1 99.16 215.67
  Q 90.41 214.88 91.86 219.69"
/>
<path stroke="#435e9a" vector-effect="non-scaling-stroke" d="
  M 91.86 219.69
  L 88.78 219.98
  A 0.84 0.83 87.7 0 0 88.03 220.80
  L 87.99 223.13
  Q 87.97 224.03 88.88 224.03
  L 150.91 224.05
  Q 152.12 224.05 152.11 222.84
  L 152.09 221.25
  Q 152.07 219.78 150.61 219.94
  Q 148.78 220.14 148.02 219.55"
/>
<path stroke="#41778c" vector-effect="non-scaling-stroke" d="
  M 148.02 219.55
  L 148.00 216.78
  A 0.80 0.80 0.0 0 0 147.17 215.98
  Q 143.76 216.13 140.74 215.71
  Q 139.99 215.61 139.99 214.86
  L 139.98 212.81
  A 0.72 0.72 0.0 0 0 139.30 212.09
  L 132.73 211.73
  Q 132.02 211.69 132.01 210.98
  L 131.98 209.01
  A 1.03 1.02 -3.1 0 0 130.86 208.01
  Q 129.75 208.10 128.74 207.81
  Q 128.17 207.65 128.17 207.05
  L 127.98 175.95"
/>
<path stroke="#435e9a" vector-effect="non-scaling-stroke" d="
  M 127.98 175.95
  L 128.00 156.14"
/>
<path stroke="#41778c" vector-effect="non-scaling-stroke" d="
  M 128.00 156.14
  L 127.98 131.74"
/>
<path stroke="#435e9a" vector-effect="non-scaling-stroke" d="
  M 127.98 131.74
  L 128.10 108.54
  A 0.54 0.54 0.0 0 1 128.69 108.00
  Q 129.55 108.08 130.56 108.10
  Q 131.62 108.13 131.89 107.21
  Q 132.18 106.23 131.95 105.18
  A 0.85 0.84 83.2 0 1 132.75 104.16
  L 138.98 103.97
  A 1.19 1.19 0.0 0 0 140.14 102.77
  L 140.12 100.99
  Q 140.11 99.85 141.24 100.07
  Q 144.35 100.68 144.16 97.92
  Q 144.12 97.44 144.13 96.93
  A 0.90 0.90 0.0 0 1 145.20 96.07
  Q 146.39 96.29 147.39 95.86
  Q 148.00 95.59 148.01 94.93
  L 148.05 92.76
  Q 148.07 92.08 148.75 92.07
  L 155.05 91.98
  Q 155.54 91.97 155.78 91.55
  Q 156.37 90.50 156.00 89.12
  A 0.79 0.78 -8.8 0 1 156.73 88.13
  L 159.18 88.03
  Q 159.92 88.00 159.97 87.27
  L 160.20 84.22"
/>
<path stroke="#41778c" vector-effect="non-scaling-stroke" d="
  M 160.20 84.22
  Q 161.33 83.90 163.01 84.10
  A 0.88 0.87 4.9 0 0 163.99 83.28
  L 164.16 80.17"
/>
<path stroke="#435e9a" vector-effect="non-scaling-stroke" d="
  M 164.16 80.17
  L 171.11 79.99
  A 1.08 1.08 0.0 0 0 172.14 78.71
  Q 171.84 77.16 172.41 76.03"
/>
<path stroke="#41778c" vector-effect="non-scaling-stroke" d="
  M 172.41 76.03
  Q 174.02 76.19 175.32 75.88
  Q 175.83 75.75 175.88 75.23
  L 176.18 72.04"
/>
<path stroke="#435e9a" vector-effect="non-scaling-stroke" d="
  M 176.18 72.04
  L 179.19 71.98
  A 0.84 0.84 0.0 0 0 180.02 71.18
  L 180.18 68.15"
/>
<path stroke="#41778c" vector-effect="non-scaling-stroke" d="
  M 180.18 68.15
  L 187.12 68.06
  A 0.97 0.97 0.0 0 0 188.07 67.00
  Q 187.98 66.07 188.08 65.24
  Q 188.27 63.48 190.20 64.08
  A 1.41 1.41 0.0 0 0 192.03 62.85
  L 192.19 60.84
  Q 192.25 60.18 192.91 60.14
  L 195.17 60.01
  A 0.82 0.81 2.1 0 0 195.93 59.31
  L 196.36 56.03"
/>
<path stroke="#435e9a" vector-effect="non-scaling-stroke" d="
  M 196.36 56.03
  L 203.01 55.93
  Q 203.96 55.91 203.96 54.96
  L 203.96 48.49"
/>
<path stroke="#41778c" vector-effect="non-scaling-stroke" d="
  M 203.96 48.49
  L 203.94 44.66
  Q 203.94 44.03 203.31 43.96
  L 200.71 43.71
  A 0.77 0.76 -87.5 0 1 200.03 42.96
  L 200.02 40.93
  A 0.85 0.84 90.0 0 0 199.19 40.09
  Q 193.70 39.97 188.26 39.96
  Q 128.26 39.85 68.25 39.80
  Q 53.45 39.78 40.49 40.03
  A 0.46 0.46 0.0 0 0 40.03 40.46
  L 39.81 43.33"
/>
<path stroke="#61b4f2" vector-effect="non-scaling-stroke" d="
  M 203.96 48.49
  Q 202.08 47.65 200.04 48.14"
/>
<path stroke="#afe6f2" vector-effect="non-scaling-stroke" d="
  M 200.04 48.14
  Q 200.35 46.46 199.90 44.73
  Q 199.77 44.24 199.28 44.15
  Q 197.91 43.89 196.00 43.89
  Q 125.29 43.75 43.17 44.07
  Q 41.57 44.08 40.05 44.41"
/>
<path stroke="#61b4f2" vector-effect="non-scaling-stroke" d="
  M 40.05 44.41
  Q 40.23 43.83 39.81 43.33"
/>
<path stroke="#b1cdff" vector-effect="non-scaling-stroke" d="
  M 40.05 44.41
  L 39.99 51.28
  Q 39.99 51.86 40.56 51.87
  L 43.07 51.91
  A 0.92 0.91 0.6 0 1 43.97 52.82
  L 43.97 54.97
  Q 43.97 55.50 44.46 55.70
  Q 45.68 56.21 47.10 55.90
  A 0.68 0.67 80.8 0 1 47.91 56.49
  L 48.23 59.58"
/>
<path stroke="#61b4f2" vector-effect="non-scaling-stroke" d="
  M 48.23 59.58
  Q 47.75 59.90 47.74 60.44"
/>
<path stroke="#b1cdff" vector-effect="non-scaling-stroke" d="
  M 200.04 48.14
  L 199.81 51.11
  A 1.12 1.12 0.0 0 1 198.65 52.15
  L 196.82 52.09
  Q 196.13 52.07 196.07 52.76
  L 195.89 54.83"
/>
<path stroke="#afe6f2" vector-effect="non-scaling-stroke" d="
  M 195.89 54.83
  Q 195.81 55.27 195.39 55.61
  Q 195.02 55.91 194.52 55.93
  Q 193.51 55.96 192.59 56.16
  Q 191.98 56.29 192.07 56.90
  Q 192.28 58.32 191.56 59.41
  Q 191.26 59.86 190.71 59.90
  L 188.64 60.06
  Q 188.12 60.10 188.09 60.62
  L 188.00 62.49
  A 1.55 1.54 0.4 0 1 186.51 63.95
  L 180.96 64.12
  A 0.85 0.85 0.0 0 0 180.13 65.00
  Q 180.21 67.43 178.88 67.94"
/>
<path stroke="#b1cdff" vector-effect="non-scaling-stroke" d="
  M 178.88 67.94
  L 176.89 68.19
  Q 176.36 68.26 176.20 68.77
  Q 175.84 69.92 175.99 71.47"
/>
<path stroke="#afe6f2" vector-effect="non-scaling-stroke" d="
  M 175.99 71.47
  L 172.60 72.31
  Q 172.14 72.43 172.15 72.90
  Q 172.19 74.98 171.17 75.90"
/>
<path stroke="#b1cdff" vector-effect="non-scaling-stroke" d="
  M 171.17 75.90
  L 164.96 76.24
  Q 164.44 76.27 164.21 76.73
  Q 163.76 77.61 163.91 79.11"
/>
<path stroke="#afe6f2" vector-effect="non-scaling-stroke" d="
  M 163.91 79.11
  Q 162.83 80.11 160.92 80.15
  Q 160.18 80.16 160.12 80.89
  Q 160.03 82.02 159.77 83.14
  Q 159.71 83.40 159.53 83.60
  Q 159.29 83.89 159.02 83.87"
/>
<path stroke="#b1cdff" vector-effect="non-scaling-stroke" d="
  M 159.02 83.87
  L 156.66 84.20
  Q 156.10 84.27 156.07 84.83
  L 155.96 86.73
  A 1.25 1.24 0.5 0 1 154.77 87.89
  L 149.25 88.14
  A 1.27 1.26 -87.8 0 0 148.06 89.25
  L 147.84 90.95
  Q 147.75 91.66 147.05 91.78
  L 144.64 92.20
  A 0.66 0.65 88.9 0 0 144.10 92.77
  L 143.81 95.44
  Q 143.76 95.87 143.32 95.91
  L 140.77 96.11
  Q 140.11 96.16 140.07 96.81
  L 139.95 98.63
  A 1.38 1.38 0.0 0 1 138.63 99.92
  L 132.97 100.13
  A 0.98 0.98 0.0 0 0 132.03 101.03
  L 131.85 103.09
  Q 131.80 103.74 131.16 103.83
  L 128.70 104.17
  A 0.71 0.71 0.0 0 0 128.08 104.80
  L 127.80 107.31
  Q 127.74 107.86 127.19 107.89
  L 125.27 108.01
  Q 124.06 108.08 124.06 109.29
  L 124.04 132.10"
/>
<path stroke="#afe6f2" vector-effect="non-scaling-stroke" d="
  M 124.04 132.10
  L 124.04 155.34"
/>
<path stroke="#b1cdff" vector-effect="non-scaling-stroke" d="
  M 124.04 155.34
  L 124.06 176.20"
/>
<path stroke="#afe6f2" vector-effect="non-scaling-stroke" d="
  M 124.06 176.20
  L 124.21 207.36
  A 0.66 0.66 0.0 0 0 124.87 208.01
  L 126.33 208.02
  Q 127.88 208.02 127.94 209.58
  L 128.00 211.17
  A 0.73 0.73 0.0 0 0 128.66 211.86
  L 131.15 212.10
  A 0.86 0.85 -88.5 0 1 131.92 212.92
  L 132.00 215.12
  Q 132.03 215.72 132.62 215.75
  L 139.05 216.08
  A 0.98 0.98 0.0 0 1 139.98 217.07
  L 139.98 219.53"
/>
<path stroke="#b1cdff" vector-effect="non-scaling-stroke" d="
  M 139.98 219.53
  Q 139.20 219.89 138.25 219.91
  Q 118.72 220.26 99.93 219.82"
/>
<path stroke="#afe6f2" vector-effect="non-scaling-stroke" d="
  M 99.93 219.82
  Q 98.37 215.37 107.23 215.50
  Q 107.99 215.51 107.97 214.75
  L 107.93 213.29
  A 0.99 0.98 -6.9 0 1 108.72 212.29
  L 111.07 211.80
  Q 111.94 211.62 111.90 210.72
  Q 111.81 208.53 112.49 208.08"
/>
<path stroke="#b1cdff" vector-effect="non-scaling-stroke" d="
  M 112.49 208.08
  Q 114.20 208.29 115.36 207.76
  Q 115.83 207.54 115.83 207.03
  L 115.91 172.40"
/>
<path stroke="#afe6f2" vector-effect="non-scaling-stroke" d="
  M 115.91 172.40
  L 115.96 131.53"
/>
<path stroke="#b1cdff" vector-effect="non-scaling-stroke" d="
  M 115.96 131.53
  L 115.67 108.85
  Q 115.67 108.20 115.01 108.21
  Q 113.84 108.22 112.62 107.80
  Q 112.03 107.59 112.01 106.96
  L 111.97 104.99
  Q 111.95 104.40 111.38 104.29
  L 108.67 103.75"
/>
<path stroke="#afe6f2" vector-effect="non-scaling-stroke" d="
  M 108.67 103.75
  Q 107.77 102.78 108.00 101.32
  A 1.08 1.08 0.0 0 0 106.96 100.07
  L 101.24 99.94
  A 1.05 1.04 -12.3 0 1 100.31 99.35
  Q 99.88 98.48 100.02 97.42
  A 1.27 1.27 0.0 0 0 99.45 96.18
  Q 98.96 95.86 98.34 95.96
  C 96.68 96.24 95.86 95.01 96.02 93.50
  Q 96.17 92.23 94.90 92.01
  Q 94.47 91.93 94.03 91.95
  C 92.68 92.00 91.89 90.89 92.02 89.59
  A 1.54 1.53 4.0 0 0 90.54 87.90
  L 84.23 87.67"
/>
<path stroke="#b1cdff" vector-effect="non-scaling-stroke" d="
  M 84.23 87.67
  L 83.92 84.94
  A 1.08 1.07 82.8 0 0 82.70 83.99
  Q 81.69 84.14 80.71 83.81
  A 0.98 0.97 7.8 0 1 80.04 82.93
  L 79.97 81.12
  A 1.15 1.15 0.0 0 0 78.71 80.02
  Q 77.69 80.12 76.80 79.77
  Q 76.29 79.57 76.14 79.04
  Q 75.87 78.01 75.95 77.19
  A 1.06 1.05 -86.2 0 0 74.93 76.02
  L 68.41 75.84"
/>
<path stroke="#afe6f2" vector-effect="non-scaling-stroke" d="
  M 68.41 75.84
  L 67.82 72.76
  Q 67.70 72.10 67.03 72.05
  L 65.03 71.91
  Q 64.22 71.85 64.14 71.04
  L 63.94 68.99
  A 1.03 1.02 89.3 0 0 62.99 68.06
  L 61.04 67.90
  Q 60.25 67.84 60.14 67.06
  L 59.83 64.78
  Q 59.76 64.25 59.23 64.20
  Q 56.49 63.95 54.15 63.97
  Q 51.29 64.00 52.03 60.94
  Q 52.37 59.52 50.98 59.95
  Q 49.71 60.35 48.23 59.58"
/>
<path stroke="#61b4f2" vector-effect="non-scaling-stroke" d="
  M 196.36 56.03
  Q 196.52 55.54 195.89 54.83"
/>
<path stroke="#61b4f2" vector-effect="non-scaling-stroke" d="
  M 68.41 75.84
  Q 68.27 76.15 67.78 76.18"
/>
<path stroke="#61b4f2" vector-effect="non-scaling-stroke" d="
  M 127.98 131.74
  L 124.04 132.10"
/>
<path stroke="#61b4f2" vector-effect="non-scaling-stroke" d="
  M 127.98 175.95
  L 124.06 176.20"
/>
<path stroke="#61b4f2" vector-effect="non-scaling-stroke" d="
  M 160.20 84.22
  Q 159.57 84.28 159.02 83.87"
/>
<path stroke="#61b4f2" vector-effect="non-scaling-stroke" d="
  M 176.18 72.04
  Q 176.08 70.89 175.99 71.47"
/>
<path stroke="#61b4f2" vector-effect="non-scaling-stroke" d="
  M 180.18 68.15
  Q 179.38 68.30 178.88 67.94"
/>
<path stroke="#61b4f2" vector-effect="non-scaling-stroke" d="
  M 115.96 131.53
  Q 114.08 132.14 112.03 131.77"
/>
<path stroke="#61b4f2" vector-effect="non-scaling-stroke" d="
  M 108.67 103.75
  Q 108.36 104.16 107.93 104.36"
/>
<path stroke="#61b4f2" vector-effect="non-scaling-stroke" d="
  M 128.00 156.14
  Q 125.50 156.22 124.04 155.34"
/>
<path stroke="#61b4f2" vector-effect="non-scaling-stroke" d="
  M 112.49 208.08
  L 111.31 207.87"
/>
<path stroke="#61b4f2" vector-effect="non-scaling-stroke" d="
  M 148.02 219.55
  L 140.92 220.03
  Q 140.57 220.05 140.37 219.77
  Q 140.19 219.52 139.98 219.53"
/>
<path stroke="#61b4f2" vector-effect="non-scaling-stroke" d="
  M 164.16 80.17
  Q 163.68 79.86 163.91 79.11"
/>
<path stroke="#61b4f2" vector-effect="non-scaling-stroke" d="
  M 115.91 172.40
  Q 114.45 171.91 111.99 172.36"
/>
<path stroke="#61b4f2" vector-effect="non-scaling-stroke" d="
  M 99.93 219.82
  L 91.86 219.69"
/>
<path stroke="#61b4f2" vector-effect="non-scaling-stroke" d="
  M 84.23 87.67
  Q 83.77 87.76 83.83 88.21"
/>
<path stroke="#61b4f2" vector-effect="non-scaling-stroke" d="
  M 172.41 76.03
  Q 171.89 76.11 171.17 75.90"
/>
<path stroke="#f6f4c8" vector-effect="non-scaling-stroke" d="
  M 59.53 60.05
  L 59.78 60.55
  Q 60.00 61.02 59.92 61.53
  Q 59.76 62.49 60.17 63.30
  Q 60.44 63.83 61.03 63.82
  Q 62.29 63.78 63.16 64.38
  Q 63.60 64.68 63.69 65.20
  Q 64.20 68.14 67.42 68.36"
/>
<path stroke="#efedb3" vector-effect="non-scaling-stroke" d="
  M 67.42 68.36
  L 68.19 71.21
  Q 68.33 71.70 68.82 71.83
  Q 70.26 72.18 72.04 71.89"
/>
<path stroke="#f6f4c8" vector-effect="non-scaling-stroke" d="
  M 72.04 71.89
  L 75.50 71.98"
/>
<path stroke="#efedb3" vector-effect="non-scaling-stroke" d="
  M 75.50 71.98
  L 76.22 75.18
  A 0.86 0.84 87.1 0 0 76.95 75.85
  L 78.93 76.10
  A 0.93 0.91 -1.2 0 1 79.72 76.84
  L 80.15 79.13
  A 0.83 0.81 0.7 0 0 80.80 79.78
  L 83.77 80.34"
/>
<path stroke="#fffcb0" vector-effect="non-scaling-stroke" d="
  M 83.77 80.34
  L 84.06 82.85
  Q 84.12 83.37 84.57 83.63
  Q 85.90 84.40 88.00 83.73"
/>
<path stroke="#efedb3" vector-effect="non-scaling-stroke" d="
  M 88.00 83.73
  L 91.54 84.41"
/>
<path stroke="#fffcb0" vector-effect="non-scaling-stroke" d="
  M 91.54 84.41
  L 92.24 87.01
  Q 92.38 87.52 92.89 87.67
  L 94.94 88.25
  A 0.97 0.96 0.6 0 1 95.61 88.93
  L 96.19 91.00
  A 1.00 1.00 0.0 0 0 96.89 91.70
  L 99.47 92.38"
/>
<path stroke="#efedb3" vector-effect="non-scaling-stroke" d="
  M 99.47 92.38
  L 100.08 94.99
  A 1.25 1.24 -5.5 0 0 101.24 95.94
  L 106.73 96.12
  A 1.06 1.05 -4.5 0 1 107.73 96.97
  L 108.15 99.20
  A 0.84 0.83 -6.3 0 0 109.01 99.88
  Q 112.17 99.74 112.10 103.04
  A 0.94 0.94 0.0 0 0 113.04 103.99
  L 126.99 103.94
  A 0.89 0.89 0.0 0 0 127.88 103.04
  Q 127.85 99.59 131.10 99.80
  A 0.61 0.60 -83.9 0 0 131.74 99.28
  L 132.08 96.86
  Q 132.18 96.16 132.88 96.13
  L 139.07 95.83
  Q 139.58 95.81 139.69 95.32
  L 140.38 92.45"
/>
<path stroke="#fffcb0" vector-effect="non-scaling-stroke" d="
  M 140.38 92.45
  L 143.23 91.58
  Q 143.76 91.42 143.79 90.88
  Q 143.95 87.86 146.87 87.77
  A 0.83 0.82 4.8 0 0 147.66 87.11
  Q 148.05 85.28 148.85 84.12"
/>
<path stroke="#efedb3" vector-effect="non-scaling-stroke" d="
  M 148.85 84.12
  L 151.83 83.78"
/>
<path stroke="#fffcb0" vector-effect="non-scaling-stroke" d="
  M 151.83 83.78
  Q 153.43 84.12 155.16 83.74
  Q 155.66 83.63 155.75 83.12
  L 156.25 80.37"
/>
<path stroke="#efedb3" vector-effect="non-scaling-stroke" d="
  M 156.25 80.37
  Q 157.55 79.81 159.25 79.71
  Q 159.85 79.67 159.85 79.07
  Q 159.82 75.76 162.97 75.84
  Q 163.54 75.85 163.66 75.30
  L 164.35 72.27"
/>
<path stroke="#f6f4c8" vector-effect="non-scaling-stroke" d="
  M 164.35 72.27
  L 171.44 71.83
  Q 172.05 71.79 172.00 71.19
  Q 171.76 67.97 175.11 67.63
  Q 175.75 67.57 175.77 66.92
  Q 175.82 65.61 176.61 64.55
  A 1.33 1.32 -78.0 0 1 177.37 64.05
  L 179.06 63.68
  Q 179.68 63.55 179.83 62.93
  Q 180.18 61.54 180.00 60.00"
/>
<path stroke="#d0d3d3" stroke-opacity="0.710" vector-effect="non-scaling-stroke" d="
  M 180.00 60.00
  L 187.29 59.94
  Q 187.86 59.93 187.94 59.36
  L 188.25 56.85
  Q 188.33 56.16 189.02 56.11
  L 191.29 55.96
  Q 191.76 55.93 191.83 55.46
  L 192.23 52.95
  Q 192.34 52.24 193.05 52.16
  L 195.20 51.92
  Q 196.04 51.82 195.95 50.98
  L 195.74 48.83
  Q 195.70 48.39 195.25 48.36
  C 194.30 48.30 193.31 48.04 192.36 48.04
  Q 122.81 47.97 49.96 48.05
  C 48.33 48.05 46.81 48.38 45.20 48.29
  A 1.02 1.02 0.0 0 0 44.13 49.09
  Q 43.91 50.06 44.12 51.00
  A 0.92 0.90 89.3 0 0 44.81 51.69
  L 47.22 52.23
  A 0.93 0.93 0.0 0 1 47.92 52.97
  L 48.25 54.95
  A 0.96 0.96 0.0 0 0 48.94 55.70
  L 51.32 56.35
  Q 51.96 56.52 52.01 57.17
  L 52.15 59.08
  Q 52.20 59.70 52.82 59.73
  L 59.53 60.05"
/>
<path stroke="#c3c385" stroke-opacity="0.710" vector-effect="non-scaling-stroke" d="
  M 180.00 60.00
  L 164.17 59.81"
/>
<path stroke="#815c49" stroke-opacity="0.710" vector-effect="non-scaling-stroke" d="
  M 164.17 59.81
  Q 163.70 58.15 164.30 56.75
  Q 164.49 56.28 165.00 56.21
  L 167.50 55.82
  Q 167.99 55.74 167.99 55.24
  L 168.00 52.84
  Q 168.00 51.94 167.09 52.00
  L 164.83 52.15
  Q 164.24 52.19 164.18 52.79
  L 163.99 54.81
  A 1.12 1.11 80.3 0 1 163.35 55.72
  Q 162.23 56.24 160.84 56.19
  Q 160.12 56.16 160.08 56.89
  L 159.95 59.26
  Q 159.91 59.85 159.33 59.87
  L 155.76 60.04"
/>
<path stroke="#c3c385" stroke-opacity="0.710" vector-effect="non-scaling-stroke" d="
  M 155.76 60.04
  L 59.53 60.05"
/>
<path stroke="#e6e27c" vector-effect="non-scaling-stroke" d="
  M 152.05 67.74
  Q 151.87 67.87 151.85 68.06"
/>
<path stroke="#cbd773" vector-effect="non-scaling-stroke" d="
  M 151.85 68.06
  L 140.05 68.21"
/>
<path stroke="#e6e27c" vector-effect="non-scaling-stroke" d="
  M 140.05 68.21
  Q 138.37 67.78 136.84 68.43
  Q 136.38 68.63 136.25 69.11
  L 135.69 71.10
  Q 135.54 71.62 135.04 71.83
  Q 134.02 72.26 133.05 71.78
  Q 132.56 71.53 132.41 71.01
  L 131.75 68.68
  Q 131.57 68.07 130.94 68.10
  L 128.92 68.17
  Q 128.27 68.20 128.13 68.84
  L 127.62 71.26
  Q 127.51 71.75 127.02 71.83
  Q 126.02 72.01 125.02 71.79
  Q 124.54 71.68 124.42 71.21
  L 123.83 68.81
  A 0.91 0.90 85.4 0 0 123.04 68.13
  Q 119.68 67.80 116.82 68.24
  Q 116.33 68.32 116.22 68.81
  L 115.69 71.24
  Q 115.62 71.56 115.32 71.70
  Q 114.33 72.14 113.15 71.94
  A 0.89 0.89 0.0 0 1 112.43 71.26
  L 111.77 68.53
  Q 111.63 67.95 111.04 67.99
  L 109.01 68.11
  Q 108.28 68.16 108.16 68.87
  L 107.77 71.05
  A 1.00 0.98 -89.9 0 1 106.97 71.86
  L 104.50 72.30
  Q 103.96 72.40 104.03 72.94
  Q 104.15 74.03 103.74 75.00
  A 1.97 1.96 44.0 0 1 100.16 75.06
  Q 99.75 74.19 100.01 72.92
  A 0.61 0.61 0.0 0 0 99.47 72.19
  L 97.50 72.01
  Q 96.07 71.88 96.13 70.44
  Q 96.28 67.09 92.69 68.08
  Q 91.96 68.28 91.95 69.04
  L 91.92 74.59
  Q 91.91 76.09 90.41 76.11
  L 89.59 76.12
  Q 88.02 76.15 88.02 74.59
  L 87.99 68.93
  Q 87.99 67.87 86.93 67.94
  L 84.85 68.07
  A 0.84 0.83 -88.8 0 0 84.07 68.83
  L 83.90 70.83
  Q 83.79 72.09 82.52 72.10
  L 81.60 72.11
  Q 80.31 72.12 80.10 70.85
  L 79.76 68.80
  A 0.93 0.93 0.0 0 0 78.81 68.03
  L 76.78 68.10
  A 0.80 0.80 0.0 0 0 76.02 68.98
  Q 76.18 70.68 75.50 71.98"
/>
<path stroke="#e6e27c" vector-effect="non-scaling-stroke" d="
  M 72.04 71.89
  Q 72.30 70.37 71.73 68.93
  Q 71.53 68.45 71.04 68.33
  Q 69.14 67.85 67.42 68.36"
/>
<path stroke="#e6e27c" vector-effect="non-scaling-stroke" d="
  M 164.35 72.27
  Q 163.82 71.89 164.09 69.86
  A 1.71 1.70 -82.2 0 0 162.64 67.94
  Q 161.68 67.81 160.77 68.27
  Q 160.03 68.63 160.01 69.46
  Q 159.95 71.73 157.82 72.15
  A 1.37 1.37 0.0 0 1 156.20 70.99
  L 155.78 67.81"
/>
<path stroke="#bea066" vector-effect="non-scaling-stroke" d="
  M 164.17 59.81
  L 161.42 59.96
  A 1.49 1.49 0.0 0 0 160.01 61.33
  L 159.86 63.08
  A 0.97 0.97 0.0 0 1 158.93 63.97
  L 156.68 64.06
  Q 156.14 64.08 156.09 64.62
  L 155.78 67.81"
/>
<path stroke="#b79951" vector-effect="non-scaling-stroke" d="
  M 155.78 67.81
  Q 153.75 68.25 152.05 67.74"
/>
<path stroke="#bea066" vector-effect="non-scaling-stroke" d="
  M 152.05 67.74
  L 152.06 64.83
  Q 152.06 64.13 152.76 64.10
  L 155.38 63.98
  Q 156.03 63.95 155.99 63.29
  L 155.76 60.04"
/>
<path stroke="#efe964" vector-effect="non-scaling-stroke" d="
  M 156.25 80.37
  C 153.24 79.37 151.64 80.68 151.83 83.78"
/>
<path stroke="#efe964" vector-effect="non-scaling-stroke" d="
  M 148.85 84.12
  Q 148.19 83.63 148.12 82.88
  Q 147.96 81.01 147.30 79.94"
/>
<path stroke="#c4cf5f" vector-effect="non-scaling-stroke" d="
  M 147.30 79.94
  L 148.37 76.99
  Q 148.53 76.54 148.99 76.40
  L 150.99 75.80
  Q 151.64 75.61 151.76 74.94
  Q 152.40 71.49 151.85 68.06"
/>
<path stroke="#c4cf5f" vector-effect="non-scaling-stroke" d="
  M 140.05 68.21
  L 139.73 71.04
  Q 139.67 71.63 139.10 71.77
  L 136.99 72.30
  Q 136.46 72.44 136.26 72.94
  Q 135.67 74.39 136.48 75.91"
/>
<path stroke="#b79951" vector-effect="non-scaling-stroke" d="
  M 136.48 75.91
  Q 135.39 77.72 136.44 79.93"
/>
<path stroke="#efe964" vector-effect="non-scaling-stroke" d="
  M 136.44 79.93
  L 135.91 80.37"
/>
<path stroke="#c4cf5f" vector-effect="non-scaling-stroke" d="
  M 135.91 80.37
  Q 129.80 79.22 124.17 81.02"
/>
<path stroke="#efe964" vector-effect="non-scaling-stroke" d="
  M 124.17 81.02
  Q 123.81 80.28 122.48 80.12
  Q 119.77 79.81 117.00 80.16
  Q 116.49 80.22 116.39 80.72
  L 115.83 83.29
  Q 115.68 83.99 114.97 83.95
  L 113.10 83.86
  Q 112.35 83.83 112.20 83.09
  L 111.67 80.49
  Q 111.56 79.93 110.99 79.99
  L 108.97 80.20
  Q 108.42 80.26 108.29 80.79
  L 107.68 83.35
  Q 107.58 83.78 107.14 83.80
  L 104.89 83.89
  A 0.61 0.61 0.0 0 1 104.27 83.40
  L 103.71 80.62
  Q 103.57 79.93 102.87 80.01
  L 100.79 80.27
  Q 100.39 80.32 100.30 80.72
  L 99.74 83.21
  Q 99.60 83.87 98.92 83.90
  L 97.32 83.98
  A 1.12 1.12 0.0 0 1 96.17 83.07
  L 95.69 80.52
  A 0.66 0.66 0.0 0 0 95.01 79.99
  L 93.07 80.10
  A 1.30 1.30 0.0 0 0 91.85 81.46
  Q 91.96 83.66 91.54 84.41"
/>
<path stroke="#efe964" vector-effect="non-scaling-stroke" d="
  M 88.00 83.73
  Q 88.18 82.20 87.64 80.76
  Q 87.47 80.28 86.97 80.16
  Q 85.43 79.78 83.77 80.34"
/>
<path stroke="#d4de5c" vector-effect="non-scaling-stroke" d="
  M 147.30 79.94
  L 146.22 79.98"
/>
<path stroke="#c4cf5f" vector-effect="non-scaling-stroke" d="
  M 146.22 79.98
  L 140.04 80.05"
/>
<path stroke="#d4de5c" vector-effect="non-scaling-stroke" d="
  M 140.04 80.05
  Q 139.89 80.02 139.86 79.98"
/>
<path stroke="#9c8e49" vector-effect="non-scaling-stroke" d="
  M 139.86 79.98
  Q 140.31 78.34 139.83 76.72
  Q 139.68 76.21 139.15 76.16
  L 136.48 75.91"
/>
<path stroke="#efe964" vector-effect="non-scaling-stroke" d="
  M 140.38 92.45
  L 135.53 92.06"
/>
<path stroke="#f6f179" vector-effect="non-scaling-stroke" d="
  M 135.53 92.06
  Q 136.39 90.05 135.70 88.41
  Q 135.50 87.93 134.98 87.90
  L 134.53 87.88"
/>
<path stroke="#d4de5c" vector-effect="non-scaling-stroke" d="
  M 124.17 81.02
  Q 124.37 82.48 123.84 83.36
  A 1.24 1.24 0.0 0 1 122.99 83.95
  L 120.93 84.30
  Q 120.41 84.39 120.28 84.90
  Q 119.89 86.42 120.28 87.97"
/>
<path stroke="#c7a84e" vector-effect="non-scaling-stroke" d="
  M 120.28 87.97
  L 120.08 88.46"
/>
<path stroke="#f6f179" vector-effect="non-scaling-stroke" d="
  M 120.08 88.46
  Q 120.02 88.32 119.91 88.17
  Q 119.66 87.81 119.22 87.89
  L 116.80 88.36
  Q 116.20 88.48 116.05 89.07
  Q 115.67 90.53 115.88 91.98"
/>
<path stroke="#efe964" vector-effect="non-scaling-stroke" d="
  M 115.88 91.98
  Q 112.14 91.67 111.76 94.96
  Q 111.65 95.85 110.77 95.99
  L 109.34 96.22
  A 1.05 1.04 79.3 0 1 108.15 95.40
  L 107.46 92.12"
/>
<path stroke="#f6f179" vector-effect="non-scaling-stroke" d="
  M 107.46 92.12
  Q 107.96 90.56 107.72 89.13
  Q 107.62 88.56 107.07 88.40
  Q 106.02 88.09 105.02 88.31
  Q 104.51 88.42 104.30 88.91
  Q 103.71 90.28 103.71 91.68"
/>
<path stroke="#efe964" vector-effect="non-scaling-stroke" d="
  M 103.71 91.68
  L 99.47 92.38"
/>
<path stroke="#c7a84e" vector-effect="non-scaling-stroke" d="
  M 139.86 79.98
  L 136.44 79.93"
/>
<path stroke="#d4de5c" vector-effect="non-scaling-stroke" d="
  M 135.91 80.37
  L 135.68 87.27
  Q 135.66 87.86 135.07 87.87
  L 134.53 87.88"
/>
<path stroke="#cbd773" vector-effect="non-scaling-stroke" d="
  M 134.53 87.88
  Q 133.44 87.82 132.67 88.24
  Q 132.21 88.50 132.13 89.02
  L 131.74 91.78"
/>
<path stroke="#d4de5c" vector-effect="non-scaling-stroke" d="
  M 131.74 91.78
  L 127.58 92.14"
/>
<path stroke="#c4cf5f" vector-effect="non-scaling-stroke" d="
  M 127.58 92.14
  L 123.93 92.01"
/>
<path stroke="#d4de5c" vector-effect="non-scaling-stroke" d="
  M 123.93 92.01
  Q 123.90 91.99 123.86 91.98"
/>
<path stroke="#9c8e49" vector-effect="non-scaling-stroke" d="
  M 123.86 91.98
  Q 124.38 90.41 123.86 88.77
  Q 123.71 88.29 123.22 88.16
  Q 121.85 87.79 120.28 87.97"
/>
<path stroke="#efe964" vector-effect="non-scaling-stroke" d="
  M 146.22 79.98
  Q 144.21 80.74 143.72 82.84
  Q 143.58 83.43 143.01 83.66
  Q 142.06 84.04 141.04 83.93
  Q 140.49 83.88 140.29 83.36
  Q 139.74 81.89 140.04 80.05"
/>
<path stroke="#e6e27c" vector-effect="non-scaling-stroke" d="
  M 135.53 92.06
  L 132.33 92.19"
/>
<path stroke="#f6f179" vector-effect="non-scaling-stroke" d="
  M 132.33 92.19
  L 131.74 91.78"
/>
<path stroke="#b79951" vector-effect="non-scaling-stroke" d="
  M 116.22 92.17
  Q 115.84 94.04 116.21 95.81"
/>
<path stroke="#e6e27c" vector-effect="non-scaling-stroke" d="
  M 116.21 95.81
  Q 115.56 97.64 116.07 99.14
  A 1.37 1.37 0.0 0 0 117.36 100.08
  L 122.78 100.11
  Q 123.29 100.12 123.59 99.70
  Q 124.79 98.05 123.73 95.65"
/>
<path stroke="#efe964" vector-effect="non-scaling-stroke" d="
  M 123.73 95.65
  Q 124.17 94.05 123.93 92.01"
/>
<path stroke="#efe964" vector-effect="non-scaling-stroke" d="
  M 127.58 92.14
  Q 127.68 93.99 128.42 95.49
  Q 128.66 95.97 129.19 96.09
  Q 130.19 96.32 131.08 96.06
  A 1.13 1.13 0.0 0 0 131.88 95.15
  L 132.33 92.19"
/>
<path stroke="#c7a84e" vector-effect="non-scaling-stroke" d="
  M 123.86 91.98
  L 119.99 91.83"
/>
<path stroke="#e6e27c" vector-effect="non-scaling-stroke" d="
  M 107.46 92.12
  Q 105.82 92.27 103.71 91.68"
/>
<path stroke="#bea066" vector-effect="non-scaling-stroke" d="
  M 120.08 88.46
  L 119.99 91.83"
/>
<path stroke="#f6f179" vector-effect="non-scaling-stroke" d="
  M 119.99 91.83
  Q 119.59 91.97 119.86 92.02"
/>
<path stroke="#bea066" vector-effect="non-scaling-stroke" d="
  M 119.86 92.02
  L 116.22 92.17"
/>
<path stroke="#e6e27c" vector-effect="non-scaling-stroke" d="
  M 116.22 92.17
  Q 115.90 92.55 115.88 91.98"
/>
<path stroke="#f6f179" vector-effect="non-scaling-stroke" d="
  M 123.73 95.65
  L 119.65 95.92"
/>
<path stroke="#c7a84e" vector-effect="non-scaling-stroke" d="
  M 119.65 95.92
  Q 120.30 94.19 119.86 92.02"
/>
<path stroke="#bea066" vector-effect="non-scaling-stroke" d="
  M 119.65 95.92
  Q 117.74 96.16 116.21 95.81"
/>
<path stroke="#e6e27c" vector-effect="non-scaling-stroke" d="
  M 103.9131 68.7399
  A 0.70 0.70 0.0 0 0 103.2094 68.0436
  L 100.7494 68.0565
  A 0.70 0.70 0.0 0 0 100.0531 68.7601
  L 100.0669 71.4001
  A 0.70 0.70 0.0 0 0 100.7706 72.0964
  L 103.2306 72.0835
  A 0.70 0.70 0.0 0 0 103.9269 71.3799
  L 103.9131 68.7399"
/>
</g>
<path fill="#222034" d="
  M 132.23 108.81
  Q 132.07 110.73 132.06 112.59
  Q 131.86 162.59 132.06 206.93
  A 0.87 0.87 0.0 0 0 132.87 207.80
  Q 135.78 208.04 138.23 208.06
  Q 140.63 208.08 139.95 210.50
  A 1.07 1.06 -78.9 0 0 140.85 211.85
  Q 143.29 212.14 145.69 211.97
  Q 148.56 211.77 147.98 214.60
  Q 147.72 215.88 149.02 215.96
  L 150.48 216.05
  Q 152.16 216.16 151.96 217.84
  Q 151.68 220.19 154.01 219.96
  Q 155.97 219.77 155.98 221.74
  L 156.02 226.56
  Q 156.03 227.86 154.73 227.88
  C 131.50 228.21 108.36 228.08 85.42 227.90
  Q 84.01 227.89 84.01 226.48
  L 84.01 221.68
  Q 84.01 220.12 85.57 219.98
  L 87.12 219.85
  Q 87.78 219.79 87.87 219.13
  L 88.20 216.65
  Q 88.28 216.09 88.84 216.06
  L 91.14 215.90
  Q 91.84 215.85 91.95 215.16
  Q 92.06 214.46 91.91 213.75
  A 1.48 1.47 -4.8 0 1 93.41 211.98
  Q 96.51 212.09 99.31 211.79
  Q 99.97 211.72 99.96 211.06
  L 99.94 209.07
  Q 99.93 208.33 100.68 208.28
  L 107.11 207.86
  Q 107.78 207.82 107.78 207.15
  L 107.87 109.04
  A 0.86 0.86 0.0 0 0 107.04 108.18
  L 101.00 107.95
  A 1.17 1.17 0.0 0 1 99.88 106.74
  L 99.96 104.88
  Q 99.98 104.46 99.60 104.28
  Q 98.56 103.77 97.37 104.09
  A 1.05 1.05 0.0 0 1 96.05 103.12
  L 95.94 100.98
  A 0.95 0.94 7.0 0 0 95.26 100.12
  Q 94.25 99.83 93.20 100.05
  A 0.83 0.83 0.0 0 1 92.28 99.59
  Q 91.79 98.57 91.98 97.47
  A 1.24 1.24 0.0 0 0 90.77 96.02
  L 85.08 95.99
  Q 84.52 95.99 84.25 95.50
  Q 83.72 94.56 84.01 93.40
  Q 84.22 92.56 83.43 92.20
  Q 82.51 91.78 81.29 92.04
  Q 80.44 92.22 80.18 91.40
  Q 79.86 90.42 80.03 89.36
  A 1.16 1.16 0.0 0 0 78.89 88.01
  L 76.96 87.99
  Q 76.40 87.99 76.19 87.47
  Q 75.80 86.48 76.01 85.40
  A 1.14 1.14 0.0 0 0 74.91 84.05
  L 69.05 83.97
  Q 68.53 83.97 68.26 83.52
  Q 67.68 82.58 68.00 81.32
  Q 68.15 80.71 67.63 80.37
  Q 66.73 79.81 65.64 80.07
  A 1.34 1.33 86.2 0 1 63.99 78.62
  Q 64.11 77.51 63.76 76.55
  A 0.83 0.82 79.7 0 0 62.99 76.01
  L 60.95 75.98
  A 0.80 0.80 0.0 0 1 60.23 75.49
  Q 59.82 74.51 59.98 73.45
  A 1.24 1.24 0.0 0 0 58.76 72.02
  L 53.32 72.00
  A 1.40 1.40 0.0 0 1 51.92 70.57
  L 51.95 68.90
  Q 51.96 68.44 51.54 68.25
  Q 50.60 67.84 49.57 68.04
  A 1.30 1.30 0.0 0 1 48.03 66.86
  L 47.88 64.79
  Q 47.82 64.01 47.04 64.00
  L 44.92 63.98
  A 0.76 0.75 -10.9 0 1 44.22 63.51
  Q 43.81 62.48 43.91 61.30
  A 1.07 1.07 0.0 0 0 42.93 60.13
  Q 40.50 59.94 37.86 60.02
  Q 36.95 60.05 36.29 59.55
  Q 35.47 58.92 35.94 57.71
  A 1.11 1.11 0.0 0 0 35.59 56.43
  Q 34.72 55.74 33.45 56.09
  Q 32.47 56.37 32.27 55.37
  Q 31.34 50.71 32.21 44.92
  Q 32.37 43.84 33.45 43.79
  L 35.05 43.72
  Q 35.73 43.68 35.76 43.01
  Q 35.83 41.69 36.40 40.46
  Q 36.59 40.05 37.05 40.00
  L 39.06 39.78
  Q 40.11 39.67 39.90 38.63
  Q 39.67 37.50 40.13 36.68
  Q 40.39 36.23 40.90 36.20
  Q 44.36 36.01 47.75 36.01
  Q 125.29 35.97 198.60 36.03
  Q 200.08 36.03 200.04 37.52
  L 200.00 39.08
  A 0.82 0.81 -86.2 0 0 200.72 39.92
  L 203.02 40.15
  A 0.96 0.95 84.9 0 1 203.83 40.83
  Q 204.11 41.76 203.96 42.74
  A 0.99 0.99 0.0 0 0 204.73 43.86
  Q 205.75 44.09 206.78 43.93
  Q 207.64 43.80 207.77 44.66
  Q 208.54 49.99 207.73 55.29
  A 0.77 0.77 0.0 0 1 206.99 55.95
  L 204.98 56.02
  A 0.97 0.97 0.0 0 0 204.10 56.65
  Q 203.77 57.55 204.13 58.57
  A 0.98 0.97 79.9 0 1 203.23 59.86
  L 197.07 60.04
  A 1.14 1.14 0.0 0 0 195.96 61.18
  L 195.97 63.16
  Q 195.97 63.78 195.35 63.85
  L 192.67 64.14
  Q 192.05 64.21 192.02 64.82
  L 191.92 66.97
  Q 191.88 67.82 191.03 67.89
  L 189.08 68.05
  Q 188.43 68.10 188.17 68.70
  Q 187.80 69.55 188.07 70.55
  A 1.06 1.06 0.0 0 1 187.10 71.88
  Q 184.50 72.03 181.84 71.96
  Q 179.48 71.91 179.94 74.36
  Q 180.22 75.79 178.77 75.92
  L 176.86 76.09
  Q 176.03 76.17 176.00 76.99
  L 175.94 78.55
  Q 175.87 80.17 174.26 79.97
  Q 171.59 79.65 172.01 82.21
  Q 172.29 83.96 170.52 83.97
  L 165.01 84.00
  A 1.02 1.01 -89.1 0 0 164.00 84.99
  L 163.92 87.10
  A 0.82 0.81 88.4 0 1 163.18 87.89
  L 161.11 88.06
  Q 160.25 88.13 160.05 88.97
  Q 159.86 89.78 159.95 90.64
  A 1.17 1.16 85.1 0 1 158.86 91.94
  L 156.86 92.05
  Q 156.22 92.09 156.09 92.73
  Q 155.89 93.71 156.03 94.72
  A 1.08 1.07 85.8 0 1 154.98 95.95
  L 149.01 96.00
  A 0.93 0.93 0.0 0 0 148.14 96.65
  Q 147.80 97.74 147.98 98.93
  A 0.71 0.71 0.0 0 1 147.53 99.69
  Q 146.51 100.09 145.36 100.00
  A 1.27 1.27 0.0 0 0 143.99 101.20
  L 143.89 103.26
  Q 143.85 103.89 143.22 103.92
  L 140.98 104.03
  A 0.96 0.96 0.0 0 0 140.11 104.74
  Q 139.92 105.49 140.07 106.25
  Q 140.37 107.85 138.75 107.90
  L 132.99 108.09
  Q 132.29 108.11 132.23 108.81
  Z
  M 39.81 43.33
  Q 38.61 43.77 37.46 43.77
  Q 35.98 43.77 35.98 45.25
  L 35.98 55.00
  A 1.02 1.02 0.0 0 0 37.00 56.02
  L 42.45 56.02
  A 1.47 1.47 0.0 0 1 43.92 57.54
  Q 43.88 58.48 44.23 59.29
  Q 44.45 59.81 45.00 59.91
  L 47.74 60.44
  L 48.11 63.20
  A 0.96 0.95 -6.8 0 0 49.16 64.02
  Q 50.27 63.90 51.30 64.23
  Q 51.89 64.41 51.92 65.02
  L 52.05 67.04
  A 1.01 1.00 88.5 0 0 53.04 67.99
  L 59.00 68.05
  A 1.04 1.04 0.0 0 1 60.01 69.26
  Q 59.81 70.54 60.37 71.59
  Q 60.62 72.07 61.16 72.01
  Q 62.24 71.89 63.29 72.16
  Q 63.89 72.32 63.93 72.94
  L 64.08 75.13
  A 0.75 0.74 1.4 0 0 64.74 75.82
  L 67.78 76.18
  L 68.07 79.17
  A 0.93 0.93 0.0 0 0 69.01 80.01
  Q 72.39 79.96 75.16 80.14
  Q 76.28 80.21 76.14 83.47
  A 0.38 0.38 0.0 0 0 76.49 83.87
  L 79.34 84.12
  A 0.62 0.62 0.0 0 1 79.90 84.70
  L 80.05 87.03
  A 0.96 0.96 0.0 0 0 80.91 87.93
  L 83.83 88.21
  L 84.23 91.38
  Q 84.31 92.00 84.94 92.01
  L 90.94 92.02
  A 1.13 1.13 0.0 0 1 92.05 93.37
  Q 91.84 94.40 92.20 95.31
  Q 92.43 95.91 93.08 95.95
  L 95.28 96.10
  A 0.72 0.71 0.4 0 1 95.95 96.78
  L 96.03 98.86
  A 1.16 1.16 0.0 0 0 97.11 99.97
  L 99.20 100.12
  Q 99.61 100.14 99.76 100.52
  Q 100.14 101.48 100.00 102.70
  A 1.20 1.20 0.0 0 0 101.14 104.03
  L 107.93 104.36
  Q 107.82 106.03 108.26 107.31
  Q 108.45 107.86 109.02 107.93
  L 111.00 108.16
  A 1.03 1.03 0.0 0 1 111.90 109.17
  L 112.03 131.77
  L 111.99 172.36
  L 111.91 207.19
  Q 111.91 207.58 111.58 207.77
  Q 111.45 207.84 111.31 207.87
  Q 109.79 207.69 108.57 208.15
  Q 108.01 208.37 108.00 208.98
  L 107.98 211.11
  Q 107.97 211.69 107.39 211.72
  L 100.73 212.08
  Q 100.38 212.10 100.20 212.40
  Q 99.69 213.26 100.07 214.57
  A 0.87 0.86 -5.5 0 1 99.16 215.67
  Q 90.41 214.88 91.86 219.69
  L 88.78 219.98
  A 0.84 0.83 87.7 0 0 88.03 220.80
  L 87.99 223.13
  Q 87.97 224.03 88.88 224.03
  L 150.91 224.05
  Q 152.12 224.05 152.11 222.84
  L 152.09 221.25
  Q 152.07 219.78 150.61 219.94
  Q 148.78 220.14 148.02 219.55
  L 148.00 216.78
  A 0.80 0.80 0.0 0 0 147.17 215.98
  Q 143.76 216.13 140.74 215.71
  Q 139.99 215.61 139.99 214.86
  L 139.98 212.81
  A 0.72 0.72 0.0 0 0 139.30 212.09
  L 132.73 211.73
  Q 132.02 211.69 132.01 210.98
  L 131.98 209.01
  A 1.03 1.02 -3.1 0 0 130.86 208.01
  Q 129.75 208.10 128.74 207.81
  Q 128.17 207.65 128.17 207.05
  L 127.98 175.95
  L 128.00 156.14
  L 127.98 131.74
  L 128.10 108.54
  A 0.54 0.54 0.0 0 1 128.69 108.00
  Q 129.55 108.08 130.56 108.10
  Q 131.62 108.13 131.89 107.21
  Q 132.18 106.23 131.95 105.18
  A 0.85 0.84 83.2 0 1 132.75 104.16
  L 138.98 103.97
  A 1.19 1.19 0.0 0 0 140.14 102.77
  L 140.12 100.99
  Q 140.11 99.85 141.24 100.07
  Q 144.35 100.68 144.16 97.92
  Q 144.12 97.44 144.13 96.93
  A 0.90 0.90 0.0 0 1 145.20 96.07
  Q 146.39 96.29 147.39 95.86
  Q 148.00 95.59 148.01 94.93
  L 148.05 92.76
  Q 148.07 92.08 148.75 92.07
  L 155.05 91.98
  Q 155.54 91.97 155.78 91.55
  Q 156.37 90.50 156.00 89.12
  A 0.79 0.78 -8.8 0 1 156.73 88.13
  L 159.18 88.03
  Q 159.92 88.00 159.97 87.27
  L 160.20 84.22
  Q 161.33 83.90 163.01 84.10
  A 0.88 0.87 4.9 0 0 163.99 83.28
  L 164.16 80.17
  L 171.11 79.99
  A 1.08 1.08 0.0 0 0 172.14 78.71
  Q 171.84 77.16 172.41 76.03
  Q 174.02 76.19 175.32 75.88
  Q 175.83 75.75 175.88 75.23
  L 176.18 72.04
  L 179.19 71.98
  A 0.84 0.84 0.0 0 0 180.02 71.18
  L 180.18 68.15
  L 187.12 68.06
  A 0.97 0.97 0.0 0 0 188.07 67.00
  Q 187.98 66.07 188.08 65.24
  Q 188.27 63.48 190.20 64.08
  A 1.41 1.41 0.0 0 0 192.03 62.85
  L 192.19 60.84
  Q 192.25 60.18 192.91 60.14
  L 195.17 60.01
  A 0.82 0.81 2.1 0 0 195.93 59.31
  L 196.36 56.03
  L 203.01 55.93
  Q 203.96 55.91 203.96 54.96
  L 203.96 48.49
  L 203.94 44.66
  Q 203.94 44.03 203.31 43.96
  L 200.71 43.71
  A 0.77 0.76 -87.5 0 1 200.03 42.96
  L 200.02 40.93
  A 0.85 0.84 90.0 0 0 199.19 40.09
  Q 193.70 39.97 188.26 39.96
  Q 128.26 39.85 68.25 39.80
  Q 53.45 39.78 40.49 40.03
  A 0.46 0.46 0.0 0 0 40.03 40.46
  L 39.81 43.33
  Z"
/>
<path fill="#5fcde4" d="
  M 203.96 48.49
  Q 202.08 47.65 200.04 48.14
  Q 200.35 46.46 199.90 44.73
  Q 199.77 44.24 199.28 44.15
  Q 197.91 43.89 196.00 43.89
  Q 125.29 43.75 43.17 44.07
  Q 41.57 44.08 40.05 44.41
  Q 40.23 43.83 39.81 43.33
  L 40.03 40.46
  A 0.46 0.46 0.0 0 1 40.49 40.03
  Q 53.45 39.78 68.25 39.80
  Q 128.26 39.85 188.26 39.96
  Q 193.70 39.97 199.19 40.09
  A 0.85 0.84 90.0 0 1 200.02 40.93
  L 200.03 42.96
  A 0.77 0.76 -87.5 0 0 200.71 43.71
  L 203.31 43.96
  Q 203.94 44.03 203.94 44.66
  L 203.96 48.49
  Z"
/>
<path fill="#639bff" d="
  M 39.81 43.33
  Q 40.23 43.83 40.05 44.41
  L 39.99 51.28
  Q 39.99 51.86 40.56 51.87
  L 43.07 51.91
  A 0.92 0.91 0.6 0 1 43.97 52.82
  L 43.97 54.97
  Q 43.97 55.50 44.46 55.70
  Q 45.68 56.21 47.10 55.90
  A 0.68 0.67 80.8 0 1 47.91 56.49
  L 48.23 59.58
  Q 47.75 59.90 47.74 60.44
  L 45.00 59.91
  Q 44.45 59.81 44.23 59.29
  Q 43.88 58.48 43.92 57.54
  A 1.47 1.47 0.0 0 0 42.45 56.02
  L 37.00 56.02
  A 1.02 1.02 0.0 0 1 35.98 55.00
  L 35.98 45.25
  Q 35.98 43.77 37.46 43.77
  Q 38.61 43.77 39.81 43.33
  Z"
/>
<path fill="#ffffff" d="
  M 200.04 48.14
  L 199.81 51.11
  A 1.12 1.12 0.0 0 1 198.65 52.15
  L 196.82 52.09
  Q 196.13 52.07 196.07 52.76
  L 195.89 54.83
  Q 195.81 55.27 195.39 55.61
  Q 195.02 55.91 194.52 55.93
  Q 193.51 55.96 192.59 56.16
  Q 191.98 56.29 192.07 56.90
  Q 192.28 58.32 191.56 59.41
  Q 191.26 59.86 190.71 59.90
  L 188.64 60.06
  Q 188.12 60.10 188.09 60.62
  L 188.00 62.49
  A 1.55 1.54 0.4 0 1 186.51 63.95
  L 180.96 64.12
  A 0.85 0.85 0.0 0 0 180.13 65.00
  Q 180.21 67.43 178.88 67.94
  L 176.89 68.19
  Q 176.36 68.26 176.20 68.77
  Q 175.84 69.92 175.99 71.47
  L 172.60 72.31
  Q 172.14 72.43 172.15 72.90
  Q 172.19 74.98 171.17 75.90
  L 164.96 76.24
  Q 164.44 76.27 164.21 76.73
  Q 163.76 77.61 163.91 79.11
  Q 162.83 80.11 160.92 80.15
  Q 160.18 80.16 160.12 80.89
  Q 160.03 82.02 159.77 83.14
  Q 159.71 83.40 159.53 83.60
  Q 159.29 83.89 159.02 83.87
  L 156.66 84.20
  Q 156.10 84.27 156.07 84.83
  L 155.96 86.73
  A 1.25 1.24 0.5 0 1 154.77 87.89
  L 149.25 88.14
  A 1.27 1.26 -87.8 0 0 148.06 89.25
  L 147.84 90.95
  Q 147.75 91.66 147.05 91.78
  L 144.64 92.20
  A 0.66 0.65 88.9 0 0 144.10 92.77
  L 143.81 95.44
  Q 143.76 95.87 143.32 95.91
  L 140.77 96.11
  Q 140.11 96.16 140.07 96.81
  L 139.95 98.63
  A 1.38 1.38 0.0 0 1 138.63 99.92
  L 132.97 100.13
  A 0.98 0.98 0.0 0 0 132.03 101.03
  L 131.85 103.09
  Q 131.80 103.74 131.16 103.83
  L 128.70 104.17
  A 0.71 0.71 0.0 0 0 128.08 104.80
  L 127.80 107.31
  Q 127.74 107.86 127.19 107.89
  L 125.27 108.01
  Q 124.06 108.08 124.06 109.29
  L 124.04 132.10
  L 124.04 155.34
  L 124.06 176.20
  L 124.21 207.36
  A 0.66 0.66 0.0 0 0 124.87 208.01
  L 126.33 208.02
  Q 127.88 208.02 127.94 209.58
  L 128.00 211.17
  A 0.73 0.73 0.0 0 0 128.66 211.86
  L 131.15 212.10
  A 0.86 0.85 -88.5 0 1 131.92 212.92
  L 132.00 215.12
  Q 132.03 215.72 132.62 215.75
  L 139.05 216.08
  A 0.98 0.98 0.0 0 1 139.98 217.07
  L 139.98 219.53
  Q 139.20 219.89 138.25 219.91
  Q 118.72 220.26 99.93 219.82
  Q 98.37 215.37 107.23 215.50
  Q 107.99 215.51 107.97 214.75
  L 107.93 213.29
  A 0.99 0.98 -6.9 0 1 108.72 212.29
  L 111.07 211.80
  Q 111.94 211.62 111.90 210.72
  Q 111.81 208.53 112.49 208.08
  Q 114.20 208.29 115.36 207.76
  Q 115.83 207.54 115.83 207.03
  L 115.91 172.40
  L 115.96 131.53
  L 115.67 108.85
  Q 115.67 108.20 115.01 108.21
  Q 113.84 108.22 112.62 107.80
  Q 112.03 107.59 112.01 106.96
  L 111.97 104.99
  Q 111.95 104.40 111.38 104.29
  L 108.67 103.75
  Q 107.77 102.78 108.00 101.32
  A 1.08 1.08 0.0 0 0 106.96 100.07
  L 101.24 99.94
  A 1.05 1.04 -12.3 0 1 100.31 99.35
  Q 99.88 98.48 100.02 97.42
  A 1.27 1.27 0.0 0 0 99.45 96.18
  Q 98.96 95.86 98.34 95.96
  C 96.68 96.24 95.86 95.01 96.02 93.50
  Q 96.17 92.23 94.90 92.01
  Q 94.47 91.93 94.03 91.95
  C 92.68 92.00 91.89 90.89 92.02 89.59
  A 1.54 1.53 4.0 0 0 90.54 87.90
  L 84.23 87.67
  L 83.92 84.94
  A 1.08 1.07 82.8 0 0 82.70 83.99
  Q 81.69 84.14 80.71 83.81
  A 0.98 0.97 7.8 0 1 80.04 82.93
  L 79.97 81.12
  A 1.15 1.15 0.0 0 0 78.71 80.02
  Q 77.69 80.12 76.80 79.77
  Q 76.29 79.57 76.14 79.04
  Q 75.87 78.01 75.95 77.19
  A 1.06 1.05 -86.2 0 0 74.93 76.02
  L 68.41 75.84
  L 67.82 72.76
  Q 67.70 72.10 67.03 72.05
  L 65.03 71.91
  Q 64.22 71.85 64.14 71.04
  L 63.94 68.99
  A 1.03 1.02 89.3 0 0 62.99 68.06
  L 61.04 67.90
  Q 60.25 67.84 60.14 67.06
  L 59.83 64.78
  Q 59.76 64.25 59.23 64.20
  Q 56.49 63.95 54.15 63.97
  Q 51.29 64.00 52.03 60.94
  Q 52.37 59.52 50.98 59.95
  Q 49.71 60.35 48.23 59.58
  L 47.91 56.49
  A 0.68 0.67 80.8 0 0 47.10 55.90
  Q 45.68 56.21 44.46 55.70
  Q 43.97 55.50 43.97 54.97
  L 43.97 52.82
  A 0.92 0.91 0.6 0 0 43.07 51.91
  L 40.56 51.87
  Q 39.99 51.86 39.99 51.28
  L 40.05 44.41
  Q 41.57 44.08 43.17 44.07
  Q 125.29 43.75 196.00 43.89
  Q 197.91 43.89 199.28 44.15
  Q 199.77 44.24 199.90 44.73
  Q 200.35 46.46 200.04 48.14
  Z
  M 59.53 60.05
  L 59.78 60.55
  Q 60.00 61.02 59.92 61.53
  Q 59.76 62.49 60.17 63.30
  Q 60.44 63.83 61.03 63.82
  Q 62.29 63.78 63.16 64.38
  Q 63.60 64.68 63.69 65.20
  Q 64.20 68.14 67.42 68.36
  L 68.19 71.21
  Q 68.33 71.70 68.82 71.83
  Q 70.26 72.18 72.04 71.89
  L 75.50 71.98
  L 76.22 75.18
  A 0.86 0.84 87.1 0 0 76.95 75.85
  L 78.93 76.10
  A 0.93 0.91 -1.2 0 1 79.72 76.84
  L 80.15 79.13
  A 0.83 0.81 0.7 0 0 80.80 79.78
  L 83.77 80.34
  L 84.06 82.85
  Q 84.12 83.37 84.57 83.63
  Q 85.90 84.40 88.00 83.73
  L 91.54 84.41
  L 92.24 87.01
  Q 92.38 87.52 92.89 87.67
  L 94.94 88.25
  A 0.97 0.96 0.6 0 1 95.61 88.93
  L 96.19 91.00
  A 1.00 1.00 0.0 0 0 96.89 91.70
  L 99.47 92.38
  L 100.08 94.99
  A 1.25 1.24 -5.5 0 0 101.24 95.94
  L 106.73 96.12
  A 1.06 1.05 -4.5 0 1 107.73 96.97
  L 108.15 99.20
  A 0.84 0.83 -6.3 0 0 109.01 99.88
  Q 112.17 99.74 112.10 103.04
  A 0.94 0.94 0.0 0 0 113.04 103.99
  L 126.99 103.94
  A 0.89 0.89 0.0 0 0 127.88 103.04
  Q 127.85 99.59 131.10 99.80
  A 0.61 0.60 -83.9 0 0 131.74 99.28
  L 132.08 96.86
  Q 132.18 96.16 132.88 96.13
  L 139.07 95.83
  Q 139.58 95.81 139.69 95.32
  L 140.38 92.45
  L 143.23 91.58
  Q 143.76 91.42 143.79 90.88
  Q 143.95 87.86 146.87 87.77
  A 0.83 0.82 4.8 0 0 147.66 87.11
  Q 148.05 85.28 148.85 84.12
  L 151.83 83.78
  Q 153.43 84.12 155.16 83.74
  Q 155.66 83.63 155.75 83.12
  L 156.25 80.37
  Q 157.55 79.81 159.25 79.71
  Q 159.85 79.67 159.85 79.07
  Q 159.82 75.76 162.97 75.84
  Q 163.54 75.85 163.66 75.30
  L 164.35 72.27
  L 171.44 71.83
  Q 172.05 71.79 172.00 71.19
  Q 171.76 67.97 175.11 67.63
  Q 175.75 67.57 175.77 66.92
  Q 175.82 65.61 176.61 64.55
  A 1.33 1.32 -78.0 0 1 177.37 64.05
  L 179.06 63.68
  Q 179.68 63.55 179.83 62.93
  Q 180.18 61.54 180.00 60.00
  L 187.29 59.94
  Q 187.86 59.93 187.94 59.36
  L 188.25 56.85
  Q 188.33 56.16 189.02 56.11
  L 191.29 55.96
  Q 191.76 55.93 191.83 55.46
  L 192.23 52.95
  Q 192.34 52.24 193.05 52.16
  L 195.20 51.92
  Q 196.04 51.82 195.95 50.98
  L 195.74 48.83
  Q 195.70 48.39 195.25 48.36
  C 194.30 48.30 193.31 48.04 192.36 48.04
  Q 122.81 47.97 49.96 48.05
  C 48.33 48.05 46.81 48.38 45.20 48.29
  A 1.02 1.02 0.0 0 0 44.13 49.09
  Q 43.91 50.06 44.12 51.00
  A 0.92 0.90 89.3 0 0 44.81 51.69
  L 47.22 52.23
  A 0.93 0.93 0.0 0 1 47.92 52.97
  L 48.25 54.95
  A 0.96 0.96 0.0 0 0 48.94 55.70
  L 51.32 56.35
  Q 51.96 56.52 52.01 57.17
  L 52.15 59.08
  Q 52.20 59.70 52.82 59.73
  L 59.53 60.05
  Z"
/>
<path fill="#5e686a" fill-opacity="0.416" d="
  M 180.00 60.00
  L 164.17 59.81
  Q 163.70 58.15 164.30 56.75
  Q 164.49 56.28 165.00 56.21
  L 167.50 55.82
  Q 167.99 55.74 167.99 55.24
  L 168.00 52.84
  Q 168.00 51.94 167.09 52.00
  L 164.83 52.15
  Q 164.24 52.19 164.18 52.79
  L 163.99 54.81
  A 1.12 1.11 80.3 0 1 163.35 55.72
  Q 162.23 56.24 160.84 56.19
  Q 160.12 56.16 160.08 56.89
  L 159.95 59.26
  Q 159.91 59.85 159.33 59.87
  L 155.76 60.04
  L 59.53 60.05
  L 52.82 59.73
  Q 52.20 59.70 52.15 59.08
  L 52.01 57.17
  Q 51.96 56.52 51.32 56.35
  L 48.94 55.70
  A 0.96 0.96 0.0 0 1 48.25 54.95
  L 47.92 52.97
  A 0.93 0.93 0.0 0 0 47.22 52.23
  L 44.81 51.69
  A 0.92 0.90 89.3 0 1 44.12 51.00
  Q 43.91 50.06 44.13 49.09
  A 1.02 1.02 0.0 0 1 45.20 48.29
  C 46.81 48.38 48.33 48.05 49.96 48.05
  Q 122.81 47.97 192.36 48.04
  C 193.31 48.04 194.30 48.30 195.25 48.36
  Q 195.70 48.39 195.74 48.83
  L 195.95 50.98
  Q 196.04 51.82 195.20 51.92
  L 193.05 52.16
  Q 192.34 52.24 192.23 52.95
  L 191.83 55.46
  Q 191.76 55.93 191.29 55.96
  L 189.02 56.11
  Q 188.33 56.16 188.25 56.85
  L 187.94 59.36
  Q 187.86 59.93 187.29 59.94
  L 180.00 60.00
  Z"
/>
<path fill="#639bff" d="
  M 203.96 48.49
  L 203.96 54.96
  Q 203.96 55.91 203.01 55.93
  L 196.36 56.03
  Q 196.52 55.54 195.89 54.83
  L 196.07 52.76
  Q 196.13 52.07 196.82 52.09
  L 198.65 52.15
  A 1.12 1.12 0.0 0 0 199.81 51.11
  L 200.04 48.14
  Q 202.08 47.65 203.96 48.49
  Z"
/>
<path fill="#8f573b" d="
  M 164.17 59.81
  L 161.42 59.96
  A 1.49 1.49 0.0 0 0 160.01 61.33
  L 159.86 63.08
  A 0.97 0.97 0.0 0 1 158.93 63.97
  L 156.68 64.06
  Q 156.14 64.08 156.09 64.62
  L 155.78 67.81
  Q 153.75 68.25 152.05 67.74
  L 152.06 64.83
  Q 152.06 64.13 152.76 64.10
  L 155.38 63.98
  Q 156.03 63.95 155.99 63.29
  L 155.76 60.04
  L 159.33 59.87
  Q 159.91 59.85 159.95 59.26
  L 160.08 56.89
  Q 160.12 56.16 160.84 56.19
  Q 162.23 56.24 163.35 55.72
  A 1.12 1.11 80.3 0 0 163.99 54.81
  L 164.18 52.79
  Q 164.24 52.19 164.83 52.15
  L 167.09 52.00
  Q 168.00 51.94 168.00 52.84
  L 167.99 55.24
  Q 167.99 55.74 167.50 55.82
  L 165.00 56.21
  Q 164.49 56.28 164.30 56.75
  Q 163.70 58.15 164.17 59.81
  Z"
/>
<path fill="#5fcde4" d="
  M 195.89 54.83
  Q 196.52 55.54 196.36 56.03
  L 195.93 59.31
  A 0.82 0.81 2.1 0 1 195.17 60.01
  L 192.91 60.14
  Q 192.25 60.18 192.19 60.84
  L 192.03 62.85
  A 1.41 1.41 0.0 0 1 190.20 64.08
  Q 188.27 63.48 188.08 65.24
  Q 187.98 66.07 188.07 67.00
  A 0.97 0.97 0.0 0 1 187.12 68.06
  L 180.18 68.15
  Q 179.38 68.30 178.88 67.94
  Q 180.21 67.43 180.13 65.00
  A 0.85 0.85 0.0 0 1 180.96 64.12
  L 186.51 63.95
  A 1.55 1.54 0.4 0 0 188.00 62.49
  L 188.09 60.62
  Q 188.12 60.10 188.64 60.06
  L 190.71 59.90
  Q 191.26 59.86 191.56 59.41
  Q 192.28 58.32 192.07 56.90
  Q 191.98 56.29 192.59 56.16
  Q 193.51 55.96 194.52 55.93
  Q 195.02 55.91 195.39 55.61
  Q 195.81 55.27 195.89 54.83
  Z"
/>
<path fill="#5fcde4" d="
  M 48.23 59.58
  Q 49.71 60.35 50.98 59.95
  Q 52.37 59.52 52.03 60.94
  Q 51.29 64.00 54.15 63.97
  Q 56.49 63.95 59.23 64.20
  Q 59.76 64.25 59.83 64.78
  L 60.14 67.06
  Q 60.25 67.84 61.04 67.90
  L 62.99 68.06
  A 1.03 1.02 89.3 0 1 63.94 68.99
  L 64.14 71.04
  Q 64.22 71.85 65.03 71.91
  L 67.03 72.05
  Q 67.70 72.10 67.82 72.76
  L 68.41 75.84
  Q 68.27 76.15 67.78 76.18
  L 64.74 75.82
  A 0.75 0.74 1.4 0 1 64.08 75.13
  L 63.93 72.94
  Q 63.89 72.32 63.29 72.16
  Q 62.24 71.89 61.16 72.01
  Q 60.62 72.07 60.37 71.59
  Q 59.81 70.54 60.01 69.26
  A 1.04 1.04 0.0 0 0 59.00 68.05
  L 53.04 67.99
  A 1.01 1.00 88.5 0 1 52.05 67.04
  L 51.92 65.02
  Q 51.89 64.41 51.30 64.23
  Q 50.27 63.90 49.16 64.02
  A 0.96 0.95 -6.8 0 1 48.11 63.20
  L 47.74 60.44
  Q 47.75 59.90 48.23 59.58
  Z"
/>
<path fill="#ede990" d="
  M 164.17 59.81
  L 180.00 60.00
  Q 180.18 61.54 179.83 62.93
  Q 179.68 63.55 179.06 63.68
  L 177.37 64.05
  A 1.33 1.32 -78.0 0 0 176.61 64.55
  Q 175.82 65.61 175.77 66.92
  Q 175.75 67.57 175.11 67.63
  Q 171.76 67.97 172.00 71.19
  Q 172.05 71.79 171.44 71.83
  L 164.35 72.27
  Q 163.82 71.89 164.09 69.86
  A 1.71 1.70 -82.2 0 0 162.64 67.94
  Q 161.68 67.81 160.77 68.27
  Q 160.03 68.63 160.01 69.46
  Q 159.95 71.73 157.82 72.15
  A 1.37 1.37 0.0 0 1 156.20 70.99
  L 155.78 67.81
  L 156.09 64.62
  Q 156.14 64.08 156.68 64.06
  L 158.93 63.97
  A 0.97 0.97 0.0 0 0 159.86 63.08
  L 160.01 61.33
  A 1.49 1.49 0.0 0 1 161.42 59.96
  L 164.17 59.81
  Z"
/>
<path fill="#ede990" d="
  M 155.76 60.04
  L 155.99 63.29
  Q 156.03 63.95 155.38 63.98
  L 152.76 64.10
  Q 152.06 64.13 152.06 64.83
  L 152.05 67.74
  Q 151.87 67.87 151.85 68.06
  L 140.05 68.21
  Q 138.37 67.78 136.84 68.43
  Q 136.38 68.63 136.25 69.11
  L 135.69 71.10
  Q 135.54 71.62 135.04 71.83
  Q 134.02 72.26 133.05 71.78
  Q 132.56 71.53 132.41 71.01
  L 131.75 68.68
  Q 131.57 68.07 130.94 68.10
  L 128.92 68.17
  Q 128.27 68.20 128.13 68.84
  L 127.62 71.26
  Q 127.51 71.75 127.02 71.83
  Q 126.02 72.01 125.02 71.79
  Q 124.54 71.68 124.42 71.21
  L 123.83 68.81
  A 0.91 0.90 85.4 0 0 123.04 68.13
  Q 119.68 67.80 116.82 68.24
  Q 116.33 68.32 116.22 68.81
  L 115.69 71.24
  Q 115.62 71.56 115.32 71.70
  Q 114.33 72.14 113.15 71.94
  A 0.89 0.89 0.0 0 1 112.43 71.26
  L 111.77 68.53
  Q 111.63 67.95 111.04 67.99
  L 109.01 68.11
  Q 108.28 68.16 108.16 68.87
  L 107.77 71.05
  A 1.00 0.98 -89.9 0 1 106.97 71.86
  L 104.50 72.30
  Q 103.96 72.40 104.03 72.94
  Q 104.15 74.03 103.74 75.00
  A 1.97 1.96 44.0 0 1 100.16 75.06
  Q 99.75 74.19 100.01 72.92
  A 0.61 0.61 0.0 0 0 99.47 72.19
  L 97.50 72.01
  Q 96.07 71.88 96.13 70.44
  Q 96.28 67.09 92.69 68.08
  Q 91.96 68.28 91.95 69.04
  L 91.92 74.59
  Q 91.91 76.09 90.41 76.11
  L 89.59 76.12
  Q 88.02 76.15 88.02 74.59
  L 87.99 68.93
  Q 87.99 67.87 86.93 67.94
  L 84.85 68.07
  A 0.84 0.83 -88.8 0 0 84.07 68.83
  L 83.90 70.83
  Q 83.79 72.09 82.52 72.10
  L 81.60 72.11
  Q 80.31 72.12 80.10 70.85
  L 79.76 68.80
  A 0.93 0.93 0.0 0 0 78.81 68.03
  L 76.78 68.10
  A 0.80 0.80 0.0 0 0 76.02 68.98
  Q 76.18 70.68 75.50 71.98
  L 72.04 71.89
  Q 72.30 70.37 71.73 68.93
  Q 71.53 68.45 71.04 68.33
  Q 69.14 67.85 67.42 68.36
  Q 64.20 68.14 63.69 65.20
  Q 63.60 64.68 63.16 64.38
  Q 62.29 63.78 61.03 63.82
  Q 60.44 63.83 60.17 63.30
  Q 59.76 62.49 59.92 61.53
  Q 60.00 61.02 59.78 60.55
  L 59.53 60.05
  L 155.76 60.04
  Z
  M 103.9131 68.7399
  A 0.70 0.70 0.0 0 0 103.2094 68.0436
  L 100.7494 68.0565
  A 0.70 0.70 0.0 0 0 100.0531 68.7601
  L 100.0669 71.4001
  A 0.70 0.70 0.0 0 0 100.7706 72.0964
  L 103.2306 72.0835
  A 0.70 0.70 0.0 0 0 103.9269 71.3799
  L 103.9131 68.7399
  Z"
/>
<path fill="#dfda67" d="
  M 152.05 67.74
  Q 153.75 68.25 155.78 67.81
  L 156.20 70.99
  A 1.37 1.37 0.0 0 0 157.82 72.15
  Q 159.95 71.73 160.01 69.46
  Q 160.03 68.63 160.77 68.27
  Q 161.68 67.81 162.64 67.94
  A 1.71 1.70 -82.2 0 1 164.09 69.86
  Q 163.82 71.89 164.35 72.27
  L 163.66 75.30
  Q 163.54 75.85 162.97 75.84
  Q 159.82 75.76 159.85 79.07
  Q 159.85 79.67 159.25 79.71
  Q 157.55 79.81 156.25 80.37
  C 153.24 79.37 151.64 80.68 151.83 83.78
  L 148.85 84.12
  Q 148.19 83.63 148.12 82.88
  Q 147.96 81.01 147.30 79.94
  L 148.37 76.99
  Q 148.53 76.54 148.99 76.40
  L 150.99 75.80
  Q 151.64 75.61 151.76 74.94
  Q 152.40 71.49 151.85 68.06
  Q 151.87 67.87 152.05 67.74
  Z"
/>
<path fill="#dfda67" d="
  M 72.04 71.89
  Q 70.26 72.18 68.82 71.83
  Q 68.33 71.70 68.19 71.21
  L 67.42 68.36
  Q 69.14 67.85 71.04 68.33
  Q 71.53 68.45 71.73 68.93
  Q 72.30 70.37 72.04 71.89
  Z"
/>
<path fill="#dfda67" d="
  M 140.05 68.21
  L 139.73 71.04
  Q 139.67 71.63 139.10 71.77
  L 136.99 72.30
  Q 136.46 72.44 136.26 72.94
  Q 135.67 74.39 136.48 75.91
  Q 135.39 77.72 136.44 79.93
  L 135.91 80.37
  Q 129.80 79.22 124.17 81.02
  Q 123.81 80.28 122.48 80.12
  Q 119.77 79.81 117.00 80.16
  Q 116.49 80.22 116.39 80.72
  L 115.83 83.29
  Q 115.68 83.99 114.97 83.95
  L 113.10 83.86
  Q 112.35 83.83 112.20 83.09
  L 111.67 80.49
  Q 111.56 79.93 110.99 79.99
  L 108.97 80.20
  Q 108.42 80.26 108.29 80.79
  L 107.68 83.35
  Q 107.58 83.78 107.14 83.80
  L 104.89 83.89
  A 0.61 0.61 0.0 0 1 104.27 83.40
  L 103.71 80.62
  Q 103.57 79.93 102.87 80.01
  L 100.79 80.27
  Q 100.39 80.32 100.30 80.72
  L 99.74 83.21
  Q 99.60 83.87 98.92 83.90
  L 97.32 83.98
  A 1.12 1.12 0.0 0 1 96.17 83.07
  L 95.69 80.52
  A 0.66 0.66 0.0 0 0 95.01 79.99
  L 93.07 80.10
  A 1.30 1.30 0.0 0 0 91.85 81.46
  Q 91.96 83.66 91.54 84.41
  L 88.00 83.73
  Q 88.18 82.20 87.64 80.76
  Q 87.47 80.28 86.97 80.16
  Q 85.43 79.78 83.77 80.34
  L 80.80 79.78
  A 0.83 0.81 0.7 0 1 80.15 79.13
  L 79.72 76.84
  A 0.93 0.91 -1.2 0 0 78.93 76.10
  L 76.95 75.85
  A 0.86 0.84 87.1 0 1 76.22 75.18
  L 75.50 71.98
  Q 76.18 70.68 76.02 68.98
  A 0.80 0.80 0.0 0 1 76.78 68.10
  L 78.81 68.03
  A 0.93 0.93 0.0 0 1 79.76 68.80
  L 80.10 70.85
  Q 80.31 72.12 81.60 72.11
  L 82.52 72.10
  Q 83.79 72.09 83.90 70.83
  L 84.07 68.83
  A 0.84 0.83 -88.8 0 1 84.85 68.07
  L 86.93 67.94
  Q 87.99 67.87 87.99 68.93
  L 88.02 74.59
  Q 88.02 76.15 89.59 76.12
  L 90.41 76.11
  Q 91.91 76.09 91.92 74.59
  L 91.95 69.04
  Q 91.96 68.28 92.69 68.08
  Q 96.28 67.09 96.13 70.44
  Q 96.07 71.88 97.50 72.01
  L 99.47 72.19
  A 0.61 0.61 0.0 0 1 100.01 72.92
  Q 99.75 74.19 100.16 75.06
  A 1.97 1.96 44.0 0 0 103.74 75.00
  Q 104.15 74.03 104.03 72.94
  Q 103.96 72.40 104.50 72.30
  L 106.97 71.86
  A 1.00 0.98 -89.9 0 0 107.77 71.05
  L 108.16 68.87
  Q 108.28 68.16 109.01 68.11
  L 111.04 67.99
  Q 111.63 67.95 111.77 68.53
  L 112.43 71.26
  A 0.89 0.89 0.0 0 0 113.15 71.94
  Q 114.33 72.14 115.32 71.70
  Q 115.62 71.56 115.69 71.24
  L 116.22 68.81
  Q 116.33 68.32 116.82 68.24
  Q 119.68 67.80 123.04 68.13
  A 0.91 0.90 85.4 0 1 123.83 68.81
  L 124.42 71.21
  Q 124.54 71.68 125.02 71.79
  Q 126.02 72.01 127.02 71.83
  Q 127.51 71.75 127.62 71.26
  L 128.13 68.84
  Q 128.27 68.20 128.92 68.17
  L 130.94 68.10
  Q 131.57 68.07 131.75 68.68
  L 132.41 71.01
  Q 132.56 71.53 133.05 71.78
  Q 134.02 72.26 135.04 71.83
  Q 135.54 71.62 135.69 71.10
  L 136.25 69.11
  Q 136.38 68.63 136.84 68.43
  Q 138.37 67.78 140.05 68.21
  Z"
/>
<rect fill="#dfda67" x="-1.93" y="-2.02" transform="translate(101.99,70.07) rotate(-0.3)" width="3.86" height="4.04" rx="0.70"/>
<path fill="#a9c456" d="
  M 151.85 68.06
  Q 152.40 71.49 151.76 74.94
  Q 151.64 75.61 150.99 75.80
  L 148.99 76.40
  Q 148.53 76.54 148.37 76.99
  L 147.30 79.94
  L 146.22 79.98
  L 140.04 80.05
  Q 139.89 80.02 139.86 79.98
  Q 140.31 78.34 139.83 76.72
  Q 139.68 76.21 139.15 76.16
  L 136.48 75.91
  Q 135.67 74.39 136.26 72.94
  Q 136.46 72.44 136.99 72.30
  L 139.10 71.77
  Q 139.67 71.63 139.73 71.04
  L 140.05 68.21
  L 151.85 68.06
  Z"
/>
<path fill="#639bff" d="
  M 178.88 67.94
  Q 179.38 68.30 180.18 68.15
  L 180.02 71.18
  A 0.84 0.84 0.0 0 1 179.19 71.98
  L 176.18 72.04
  Q 176.08 70.89 175.99 71.47
  Q 175.84 69.92 176.20 68.77
  Q 176.36 68.26 176.89 68.19
  L 178.88 67.94
  Z"
/>
<path fill="#5fcde4" d="
  M 175.99 71.47
  Q 176.08 70.89 176.18 72.04
  L 175.88 75.23
  Q 175.83 75.75 175.32 75.88
  Q 174.02 76.19 172.41 76.03
  Q 171.89 76.11 171.17 75.90
  Q 172.19 74.98 172.15 72.90
  Q 172.14 72.43 172.60 72.31
  L 175.99 71.47
  Z"
/>
<path fill="#639bff" d="
  M 68.41 75.84
  L 74.93 76.02
  A 1.06 1.05 -86.2 0 1 75.95 77.19
  Q 75.87 78.01 76.14 79.04
  Q 76.29 79.57 76.80 79.77
  Q 77.69 80.12 78.71 80.02
  A 1.15 1.15 0.0 0 1 79.97 81.12
  L 80.04 82.93
  A 0.98 0.97 7.8 0 0 80.71 83.81
  Q 81.69 84.14 82.70 83.99
  A 1.08 1.07 82.8 0 1 83.92 84.94
  L 84.23 87.67
  Q 83.77 87.76 83.83 88.21
  L 80.91 87.93
  A 0.96 0.96 0.0 0 1 80.05 87.03
  L 79.90 84.70
  A 0.62 0.62 0.0 0 0 79.34 84.12
  L 76.49 83.87
  A 0.38 0.38 0.0 0 1 76.14 83.47
  Q 76.28 80.21 75.16 80.14
  Q 72.39 79.96 69.01 80.01
  A 0.93 0.93 0.0 0 1 68.07 79.17
  L 67.78 76.18
  Q 68.27 76.15 68.41 75.84
  Z"
/>
<path fill="#639bff" d="
  M 171.17 75.90
  Q 171.89 76.11 172.41 76.03
  Q 171.84 77.16 172.14 78.71
  A 1.08 1.08 0.0 0 1 171.11 79.99
  L 164.16 80.17
  Q 163.68 79.86 163.91 79.11
  Q 163.76 77.61 164.21 76.73
  Q 164.44 76.27 164.96 76.24
  L 171.17 75.90
  Z"
/>
<path fill="#8f573b" d="
  M 136.48 75.91
  L 139.15 76.16
  Q 139.68 76.21 139.83 76.72
  Q 140.31 78.34 139.86 79.98
  L 136.44 79.93
  Q 135.39 77.72 136.48 75.91
  Z"
/>
<path fill="#5fcde4" d="
  M 163.91 79.11
  Q 163.68 79.86 164.16 80.17
  L 163.99 83.28
  A 0.88 0.87 4.9 0 1 163.01 84.10
  Q 161.33 83.90 160.20 84.22
  Q 159.57 84.28 159.02 83.87
  Q 159.29 83.89 159.53 83.60
  Q 159.71 83.40 159.77 83.14
  Q 160.03 82.02 160.12 80.89
  Q 160.18 80.16 160.92 80.15
  Q 162.83 80.11 163.91 79.11
  Z"
/>
<path fill="#dfda67" d="
  M 146.22 79.98
  Q 144.21 80.74 143.72 82.84
  Q 143.58 83.43 143.01 83.66
  Q 142.06 84.04 141.04 83.93
  Q 140.49 83.88 140.29 83.36
  Q 139.74 81.89 140.04 80.05
  L 146.22 79.98
  Z"
/>
<path fill="#fff861" d="
  M 88.00 83.73
  Q 85.90 84.40 84.57 83.63
  Q 84.12 83.37 84.06 82.85
  L 83.77 80.34
  Q 85.43 79.78 86.97 80.16
  Q 87.47 80.28 87.64 80.76
  Q 88.18 82.20 88.00 83.73
  Z"
/>
<path fill="#fff861" d="
  M 124.17 81.02
  Q 124.37 82.48 123.84 83.36
  A 1.24 1.24 0.0 0 1 122.99 83.95
  L 120.93 84.30
  Q 120.41 84.39 120.28 84.90
  Q 119.89 86.42 120.28 87.97
  L 120.08 88.46
  Q 120.02 88.32 119.91 88.17
  Q 119.66 87.81 119.22 87.89
  L 116.80 88.36
  Q 116.20 88.48 116.05 89.07
  Q 115.67 90.53 115.88 91.98
  Q 112.14 91.67 111.76 94.96
  Q 111.65 95.85 110.77 95.99
  L 109.34 96.22
  A 1.05 1.04 79.3 0 1 108.15 95.40
  L 107.46 92.12
  Q 107.96 90.56 107.72 89.13
  Q 107.62 88.56 107.07 88.40
  Q 106.02 88.09 105.02 88.31
  Q 104.51 88.42 104.30 88.91
  Q 103.71 90.28 103.71 91.68
  L 99.47 92.38
  L 96.89 91.70
  A 1.00 1.00 0.0 0 1 96.19 91.00
  L 95.61 88.93
  A 0.97 0.96 0.6 0 0 94.94 88.25
  L 92.89 87.67
  Q 92.38 87.52 92.24 87.01
  L 91.54 84.41
  Q 91.96 83.66 91.85 81.46
  A 1.30 1.30 0.0 0 1 93.07 80.10
  L 95.01 79.99
  A 0.66 0.66 0.0 0 1 95.69 80.52
  L 96.17 83.07
  A 1.12 1.12 0.0 0 0 97.32 83.98
  L 98.92 83.90
  Q 99.60 83.87 99.74 83.21
  L 100.30 80.72
  Q 100.39 80.32 100.79 80.27
  L 102.87 80.01
  Q 103.57 79.93 103.71 80.62
  L 104.27 83.40
  A 0.61 0.61 0.0 0 0 104.89 83.89
  L 107.14 83.80
  Q 107.58 83.78 107.68 83.35
  L 108.29 80.79
  Q 108.42 80.26 108.97 80.20
  L 110.99 79.99
  Q 111.56 79.93 111.67 80.49
  L 112.20 83.09
  Q 112.35 83.83 113.10 83.86
  L 114.97 83.95
  Q 115.68 83.99 115.83 83.29
  L 116.39 80.72
  Q 116.49 80.22 117.00 80.16
  Q 119.77 79.81 122.48 80.12
  Q 123.81 80.28 124.17 81.02
  Z"
/>
<path fill="#a9c456" d="
  M 135.91 80.37
  L 135.68 87.27
  Q 135.66 87.86 135.07 87.87
  L 134.53 87.88
  Q 133.44 87.82 132.67 88.24
  Q 132.21 88.50 132.13 89.02
  L 131.74 91.78
  L 127.58 92.14
  L 123.93 92.01
  Q 123.90 91.99 123.86 91.98
  Q 124.38 90.41 123.86 88.77
  Q 123.71 88.29 123.22 88.16
  Q 121.85 87.79 120.28 87.97
  Q 119.89 86.42 120.28 84.90
  Q 120.41 84.39 120.93 84.30
  L 122.99 83.95
  A 1.24 1.24 0.0 0 0 123.84 83.36
  Q 124.37 82.48 124.17 81.02
  Q 129.80 79.22 135.91 80.37
  Z"
/>
<path fill="#fff861" d="
  M 136.44 79.93
  L 139.86 79.98
  Q 139.89 80.02 140.04 80.05
  Q 139.74 81.89 140.29 83.36
  Q 140.49 83.88 141.04 83.93
  Q 142.06 84.04 143.01 83.66
  Q 143.58 83.43 143.72 82.84
  Q 144.21 80.74 146.22 79.98
  L 147.30 79.94
  Q 147.96 81.01 148.12 82.88
  Q 148.19 83.63 148.85 84.12
  Q 148.05 85.28 147.66 87.11
  A 0.83 0.82 4.8 0 1 146.87 87.77
  Q 143.95 87.86 143.79 90.88
  Q 143.76 91.42 143.23 91.58
  L 140.38 92.45
  L 135.53 92.06
  Q 136.39 90.05 135.70 88.41
  Q 135.50 87.93 134.98 87.90
  L 134.53 87.88
  L 135.07 87.87
  Q 135.66 87.86 135.68 87.27
  L 135.91 80.37
  L 136.44 79.93
  Z"
/>
<path fill="#fff861" d="
  M 156.25 80.37
  L 155.75 83.12
  Q 155.66 83.63 155.16 83.74
  Q 153.43 84.12 151.83 83.78
  C 151.64 80.68 153.24 79.37 156.25 80.37
  Z"
/>
<path fill="#639bff" d="
  M 159.02 83.87
  Q 159.57 84.28 160.20 84.22
  L 159.97 87.27
  Q 159.92 88.00 159.18 88.03
  L 156.73 88.13
  A 0.79 0.78 -8.8 0 0 156.00 89.12
  Q 156.37 90.50 155.78 91.55
  Q 155.54 91.97 155.05 91.98
  L 148.75 92.07
  Q 148.07 92.08 148.05 92.76
  L 148.01 94.93
  Q 148.00 95.59 147.39 95.86
  Q 146.39 96.29 145.20 96.07
  A 0.90 0.90 0.0 0 0 144.13 96.93
  Q 144.12 97.44 144.16 97.92
  Q 144.35 100.68 141.24 100.07
  Q 140.11 99.85 140.12 100.99
  L 140.14 102.77
  A 1.19 1.19 0.0 0 1 138.98 103.97
  L 132.75 104.16
  A 0.85 0.84 83.2 0 0 131.95 105.18
  Q 132.18 106.23 131.89 107.21
  Q 131.62 108.13 130.56 108.10
  Q 129.55 108.08 128.69 108.00
  A 0.54 0.54 0.0 0 0 128.10 108.54
  L 127.98 131.74
  L 124.04 132.10
  L 124.06 109.29
  Q 124.06 108.08 125.27 108.01
  L 127.19 107.89
  Q 127.74 107.86 127.80 107.31
  L 128.08 104.80
  A 0.71 0.71 0.0 0 1 128.70 104.17
  L 131.16 103.83
  Q 131.80 103.74 131.85 103.09
  L 132.03 101.03
  A 0.98 0.98 0.0 0 1 132.97 100.13
  L 138.63 99.92
  A 1.38 1.38 0.0 0 0 139.95 98.63
  L 140.07 96.81
  Q 140.11 96.16 140.77 96.11
  L 143.32 95.91
  Q 143.76 95.87 143.81 95.44
  L 144.10 92.77
  A 0.66 0.65 88.9 0 1 144.64 92.20
  L 147.05 91.78
  Q 147.75 91.66 147.84 90.95
  L 148.06 89.25
  A 1.27 1.26 -87.8 0 1 149.25 88.14
  L 154.77 87.89
  A 1.25 1.24 0.5 0 0 155.96 86.73
  L 156.07 84.83
  Q 156.10 84.27 156.66 84.20
  L 159.02 83.87
  Z"
/>
<path fill="#5fcde4" d="
  M 84.23 87.67
  L 90.54 87.90
  A 1.54 1.53 4.0 0 1 92.02 89.59
  C 91.89 90.89 92.68 92.00 94.03 91.95
  Q 94.47 91.93 94.90 92.01
  Q 96.17 92.23 96.02 93.50
  C 95.86 95.01 96.68 96.24 98.34 95.96
  Q 98.96 95.86 99.45 96.18
  A 1.27 1.27 0.0 0 1 100.02 97.42
  Q 99.88 98.48 100.31 99.35
  A 1.05 1.04 -12.3 0 0 101.24 99.94
  L 106.96 100.07
  A 1.08 1.08 0.0 0 1 108.00 101.32
  Q 107.77 102.78 108.67 103.75
  Q 108.36 104.16 107.93 104.36
  L 101.14 104.03
  A 1.20 1.20 0.0 0 1 100.00 102.70
  Q 100.14 101.48 99.76 100.52
  Q 99.61 100.14 99.20 100.12
  L 97.11 99.97
  A 1.16 1.16 0.0 0 1 96.03 98.86
  L 95.95 96.78
  A 0.72 0.71 0.4 0 0 95.28 96.10
  L 93.08 95.95
  Q 92.43 95.91 92.20 95.31
  Q 91.84 94.40 92.05 93.37
  A 1.13 1.13 0.0 0 0 90.94 92.02
  L 84.94 92.01
  Q 84.31 92.00 84.23 91.38
  L 83.83 88.21
  Q 83.77 87.76 84.23 87.67
  Z"
/>
<path fill="#ede990" d="
  M 120.08 88.46
  L 119.99 91.83
  Q 119.59 91.97 119.86 92.02
  L 116.22 92.17
  Q 115.90 92.55 115.88 91.98
  Q 115.67 90.53 116.05 89.07
  Q 116.20 88.48 116.80 88.36
  L 119.22 87.89
  Q 119.66 87.81 119.91 88.17
  Q 120.02 88.32 120.08 88.46
  Z"
/>
<path fill="#8f573b" d="
  M 120.28 87.97
  Q 121.85 87.79 123.22 88.16
  Q 123.71 88.29 123.86 88.77
  Q 124.38 90.41 123.86 91.98
  L 119.99 91.83
  L 120.08 88.46
  L 120.28 87.97
  Z"
/>
<path fill="#ede990" d="
  M 134.53 87.88
  L 134.98 87.90
  Q 135.50 87.93 135.70 88.41
  Q 136.39 90.05 135.53 92.06
  L 132.33 92.19
  L 131.74 91.78
  L 132.13 89.02
  Q 132.21 88.50 132.67 88.24
  Q 133.44 87.82 134.53 87.88
  Z"
/>
<path fill="#ede990" d="
  M 107.46 92.12
  Q 105.82 92.27 103.71 91.68
  Q 103.71 90.28 104.30 88.91
  Q 104.51 88.42 105.02 88.31
  Q 106.02 88.09 107.07 88.40
  Q 107.62 88.56 107.72 89.13
  Q 107.96 90.56 107.46 92.12
  Z"
/>
<path fill="#dfda67" d="
  M 103.71 91.68
  Q 105.82 92.27 107.46 92.12
  L 108.15 95.40
  A 1.05 1.04 79.3 0 0 109.34 96.22
  L 110.77 95.99
  Q 111.65 95.85 111.76 94.96
  Q 112.14 91.67 115.88 91.98
  Q 115.90 92.55 116.22 92.17
  Q 115.84 94.04 116.21 95.81
  Q 115.56 97.64 116.07 99.14
  A 1.37 1.37 0.0 0 0 117.36 100.08
  L 122.78 100.11
  Q 123.29 100.12 123.59 99.70
  Q 124.79 98.05 123.73 95.65
  Q 124.17 94.05 123.93 92.01
  L 127.58 92.14
  Q 127.68 93.99 128.42 95.49
  Q 128.66 95.97 129.19 96.09
  Q 130.19 96.32 131.08 96.06
  A 1.13 1.13 0.0 0 0 131.88 95.15
  L 132.33 92.19
  L 135.53 92.06
  L 140.38 92.45
  L 139.69 95.32
  Q 139.58 95.81 139.07 95.83
  L 132.88 96.13
  Q 132.18 96.16 132.08 96.86
  L 131.74 99.28
  A 0.61 0.60 -83.9 0 1 131.10 99.80
  Q 127.85 99.59 127.88 103.04
  A 0.89 0.89 0.0 0 1 126.99 103.94
  L 113.04 103.99
  A 0.94 0.94 0.0 0 1 112.10 103.04
  Q 112.17 99.74 109.01 99.88
  A 0.84 0.83 -6.3 0 1 108.15 99.20
  L 107.73 96.97
  A 1.06 1.05 -4.5 0 0 106.73 96.12
  L 101.24 95.94
  A 1.25 1.24 -5.5 0 1 100.08 94.99
  L 99.47 92.38
  L 103.71 91.68
  Z"
/>
<path fill="#fff861" d="
  M 119.99 91.83
  L 123.86 91.98
  Q 123.90 91.99 123.93 92.01
  Q 124.17 94.05 123.73 95.65
  L 119.65 95.92
  Q 120.30 94.19 119.86 92.02
  Q 119.59 91.97 119.99 91.83
  Z"
/>
<path fill="#fff861" d="
  M 131.74 91.78
  L 132.33 92.19
  L 131.88 95.15
  A 1.13 1.13 0.0 0 1 131.08 96.06
  Q 130.19 96.32 129.19 96.09
  Q 128.66 95.97 128.42 95.49
  Q 127.68 93.99 127.58 92.14
  L 131.74 91.78
  Z"
/>
<path fill="#8f573b" d="
  M 119.86 92.02
  Q 120.30 94.19 119.65 95.92
  Q 117.74 96.16 116.21 95.81
  Q 115.84 94.04 116.22 92.17
  L 119.86 92.02
  Z"
/>
<path fill="#ede990" d="
  M 116.21 95.81
  Q 117.74 96.16 119.65 95.92
  L 123.73 95.65
  Q 124.79 98.05 123.59 99.70
  Q 123.29 100.12 122.78 100.11
  L 117.36 100.08
  A 1.37 1.37 0.0 0 1 116.07 99.14
  Q 115.56 97.64 116.21 95.81
  Z"
/>
<path fill="#639bff" d="
  M 108.67 103.75
  L 111.38 104.29
  Q 111.95 104.40 111.97 104.99
  L 112.01 106.96
  Q 112.03 107.59 112.62 107.80
  Q 113.84 108.22 115.01 108.21
  Q 115.67 108.20 115.67 108.85
  L 115.96 131.53
  Q 114.08 132.14 112.03 131.77
  L 111.90 109.17
  A 1.03 1.03 0.0 0 0 111.00 108.16
  L 109.02 107.93
  Q 108.45 107.86 108.26 107.31
  Q 107.82 106.03 107.93 104.36
  Q 108.36 104.16 108.67 103.75
  Z"
/>
<path fill="#5fcde4" d="
  M 115.96 131.53
  L 115.91 172.40
  Q 114.45 171.91 111.99 172.36
  L 112.03 131.77
  Q 114.08 132.14 115.96 131.53
  Z"
/>
<path fill="#5fcde4" d="
  M 127.98 131.74
  L 128.00 156.14
  Q 125.50 156.22 124.04 155.34
  L 124.04 132.10
  L 127.98 131.74
  Z"
/>
<path fill="#639bff" d="
  M 124.04 155.34
  Q 125.50 156.22 128.00 156.14
  L 127.98 175.95
  L 124.06 176.20
  L 124.04 155.34
  Z"
/>
<path fill="#639bff" d="
  M 111.99 172.36
  Q 114.45 171.91 115.91 172.40
  L 115.83 207.03
  Q 115.83 207.54 115.36 207.76
  Q 114.20 208.29 112.49 208.08
  L 111.31 207.87
  Q 111.45 207.84 111.58 207.77
  Q 111.91 207.58 111.91 207.19
  L 111.99 172.36
  Z"
/>
<path fill="#5fcde4" d="
  M 127.98 175.95
  L 128.17 207.05
  Q 128.17 207.65 128.74 207.81
  Q 129.75 208.10 130.86 208.01
  A 1.03 1.02 -3.1 0 1 131.98 209.01
  L 132.01 210.98
  Q 132.02 211.69 132.73 211.73
  L 139.30 212.09
  A 0.72 0.72 0.0 0 1 139.98 212.81
  L 139.99 214.86
  Q 139.99 215.61 140.74 215.71
  Q 143.76 216.13 147.17 215.98
  A 0.80 0.80 0.0 0 1 148.00 216.78
  L 148.02 219.55
  L 140.92 220.03
  Q 140.57 220.05 140.37 219.77
  Q 140.19 219.52 139.98 219.53
  L 139.98 217.07
  A 0.98 0.98 0.0 0 0 139.05 216.08
  L 132.62 215.75
  Q 132.03 215.72 132.00 215.12
  L 131.92 212.92
  A 0.86 0.85 -88.5 0 0 131.15 212.10
  L 128.66 211.86
  A 0.73 0.73 0.0 0 1 128.00 211.17
  L 127.94 209.58
  Q 127.88 208.02 126.33 208.02
  L 124.87 208.01
  A 0.66 0.66 0.0 0 1 124.21 207.36
  L 124.06 176.20
  L 127.98 175.95
  Z"
/>
<path fill="#5fcde4" d="
  M 111.31 207.87
  L 112.49 208.08
  Q 111.81 208.53 111.90 210.72
  Q 111.94 211.62 111.07 211.80
  L 108.72 212.29
  A 0.99 0.98 -6.9 0 0 107.93 213.29
  L 107.97 214.75
  Q 107.99 215.51 107.23 215.50
  Q 98.37 215.37 99.93 219.82
  L 91.86 219.69
  Q 90.41 214.88 99.16 215.67
  A 0.87 0.86 -5.5 0 0 100.07 214.57
  Q 99.69 213.26 100.20 212.40
  Q 100.38 212.10 100.73 212.08
  L 107.39 211.72
  Q 107.97 211.69 107.98 211.11
  L 108.00 208.98
  Q 108.01 208.37 108.57 208.15
  Q 109.79 207.69 111.31 207.87
  Z"
/>
<path fill="#639bff" d="
  M 139.98 219.53
  Q 140.19 219.52 140.37 219.77
  Q 140.57 220.05 140.92 220.03
  L 148.02 219.55
  Q 148.78 220.14 150.61 219.94
  Q 152.07 219.78 152.09 221.25
  L 152.11 222.84
  Q 152.12 224.05 150.91 224.05
  L 88.88 224.03
  Q 87.97 224.03 87.99 223.13
  L 88.03 220.80
  A 0.84 0.83 87.7 0 1 88.78 219.98
  L 91.86 219.69
  L 99.93 219.82
  Q 118.72 220.26 138.25 219.91
  Q 139.20 219.89 139.98 219.53
  Z"
/>
</svg>
